<svg width="32" height="28" viewBox="0 0 32 28" fill="none" xmlns="http://www.w3.org/2000/svg">
<path fill-rule="evenodd" clip-rule="evenodd" d="M26.255 1.32772C29.6306 -0.0551109 32.6366 2.85124 31.8701 6.45978L31.8483 6.55413L28.0794 24.3417C27.4076 27.5698 24.4457 28.9076 21.6078 27.3396L21.4374 27.2379L21.2742 27.1253L17.5788 24.3911L16.446 25.4943C15.6149 26.274 14.675 26.7283 13.4026 26.7283C12.5671 26.7283 11.8453 26.5745 11.1158 26.0397C10.6825 25.7221 10.3571 25.328 10.1231 24.8888C10.0189 24.6931 9.94512 24.5173 9.88128 24.331L9.78934 24.0351L9.71239 23.7739L9.67514 23.6654L8.0408 18.6481L4.01139 17.389C-0.115702 16.1227 0.171618 11.7712 3.69594 10.0667L3.88783 9.97792L4.08588 9.89443L26.1958 1.35408L26.255 1.32772ZM27.9442 4.00006C27.7839 3.99592 27.6141 4.02397 27.4417 4.08579L27.3119 4.13852L5.16689 12.6929L5.01076 12.7588C3.70776 13.3377 3.70642 14.0991 4.76461 14.4789L4.8914 14.521L10.4144 16.2475L12.5277 22.7364L12.5717 22.8646L12.6945 23.2811C12.7905 23.5951 12.8907 23.7283 13.4026 23.7283C13.8623 23.7283 14.1174 23.5603 14.365 23.3328L17.3136 20.4626L23.0586 24.7137L23.1948 24.7849C23.4639 24.9171 23.7123 24.9888 23.9364 24.9985L24.0464 24.9982L24.1523 24.9876C24.5993 24.9194 24.9281 24.5619 25.1021 23.9017L25.1424 23.7304L28.9135 5.93228L28.9497 5.76943C29.1572 4.70558 28.6938 4.07968 28.0432 4.00683L27.9442 4.00006ZM23.7302 7.98475L11.2812 15.8508L13.379 22.2919L13.7941 17.8584L24.4536 8.22615C24.9215 7.81022 24.3516 7.60728 23.7302 7.98475Z" fill="white"/>
</svg>
