<svg width="30" height="25" viewBox="0 0 30 25" fill="none" xmlns="http://www.w3.org/2000/svg">
<path fill-rule="evenodd" clip-rule="evenodd" d="M6.81764 0L7.27132 0.45332L7.725 0H11.9676L12.4213 0.45332L12.875 0H17.1176L17.5713 0.45332L18.025 0H22.2676L22.7213 0.45332L23.175 0H27.4176L29.9926 2.575V6.81764L29.5393 7.27132L29.9926 7.725V11.9676L29.5393 12.4213L29.9926 12.875V17.1176L29.5393 17.5713L29.9926 18.025V22.2676L27.4176 24.8426H23.175L22.7213 24.3893L22.2676 24.8426H18.025L17.5713 24.3893L17.1176 24.8426H12.875L12.4213 24.3893L11.9676 24.8426H7.725L7.27132 24.3893L6.81764 24.8426H2.575L0 22.2676V18.025L0.45332 17.5713L0 17.1176V12.875L0.45332 12.4213L0 11.9676V7.725L0.45332 7.27132L0 6.81764V2.575L2.575 0H6.81764ZM2.12132 4.69632L4.69632 7.27132L2.12132 9.84632L4.69632 12.4213L2.12132 14.9963L4.69632 17.5713L2.12132 20.1463L4.69632 22.7213L7.27132 20.1463L9.84632 22.7213L12.4213 20.1463L14.9963 22.7213L17.5713 20.1463L20.1463 22.7213L22.7213 20.1463L25.2963 22.7213L27.8713 20.1463L25.2963 17.5713L27.8713 14.9963L25.2963 12.4213L27.8713 9.84632L25.2963 7.27132L27.8713 4.69632L25.2963 2.12132L22.7213 4.69632L20.1463 2.12132L17.5713 4.69632L14.9963 2.12132L12.4213 4.69632L9.84632 2.12132L7.27132 4.69632L4.69632 2.12132L2.12132 4.69632ZM7.27132 9.84632L14.9963 16.2838L22.7213 9.84632V7.27132L14.9963 12.4213L7.27132 7.27132V9.84632Z" fill="white"/>
</svg>
