<svg width="37" height="24" viewBox="0 0 37 24" fill="none" xmlns="http://www.w3.org/2000/svg">
<path fill-rule="evenodd" clip-rule="evenodd" d="M15.3924 0L15.5924 0.00351104L15.724 0.00957914L19.4045 0.00909591C21.4263 0.00909591 23.1296 1.29838 23.7869 3.08916L23.804 3.14058L23.9801 2.81842C24.7175 1.56959 26.0587 0.787701 27.525 0.787711H32.5091C35.7641 0.787711 37.236 3.42334 36.4283 6.12855C36.0975 7.23663 35.4557 8.33334 34.6301 9.46245L32.088 12.9116L33.5488 14.4819L34.481 15.4742L35.2081 16.2324C38.0182 19.27 36.8681 23.9172 31.9463 23.9172H27.4736C26.2734 23.9172 25.123 23.4488 24.2599 22.615L23.499 21.8806L23.4173 22.0162C22.7207 23.1021 21.5342 23.8439 20.1603 23.9121L19.9528 23.9172H17.1072C12.8294 23.9172 9.05612 20.9457 5.60883 16.0723C3.31216 12.8255 1.24072 8.73339 0.226507 5.87316C-0.187948 4.72558 -0.027993 3.44548 0.660022 2.4357C1.3649 1.40117 2.53745 0.778982 3.77472 0.787711L8.29864 0.787714C9.34363 0.786151 10.3202 1.18834 11.0542 1.87182L11.081 1.89758L11.1964 1.77696C12.2439 0.717736 13.647 0.0829962 15.1356 0.00803052L15.3924 0ZM19.4045 3.0091H15.6571L15.463 3.00072C14.4956 2.99114 13.5777 3.46265 13.0048 4.27435L13.1227 4.26393L13.2861 4.26515L13.4231 4.27816C13.9834 4.35374 14.9077 4.75681 14.9077 6.59396L14.9089 6.85518L14.9703 10.7051C14.9818 11.1811 14.7033 11.614 14.2727 11.7894C13.8421 11.9647 13.3508 11.8454 13.0421 11.4904C11.5082 9.29716 10.2376 6.92148 9.25802 4.41496C9.08622 4.03208 8.71327 3.7871 8.30313 3.78771H3.77472L3.66752 3.79466C3.45589 3.82373 3.26359 3.94241 3.13925 4.12491C2.99418 4.33782 2.96012 4.61042 3.04813 4.85412C3.0675 4.90873 3.08776 4.96499 3.10893 5.02285L3.24651 5.3886L3.405 5.78978L3.58391 6.22364L3.78272 6.68744L4.00095 7.17842L4.3636 7.95986L4.62819 8.50678L4.91045 9.07127L5.20989 9.65058L5.526 10.242L5.85829 10.8427C5.91499 10.9434 5.97235 11.0444 6.03035 11.1456L6.38598 11.7552L6.75654 12.3671L7.14154 12.9788C9.75525 17.0496 13.2983 20.9172 17.1072 20.9172H19.9528L20.0753 20.9105C20.6386 20.8477 21.077 20.3572 21.077 19.7615V17.995L21.0847 17.8606C21.1308 17.4624 21.3792 17.1145 21.7431 16.9526C22.1474 16.7728 22.617 16.8572 22.9381 17.1673L26.3441 20.4573L26.4632 20.5619C26.7512 20.7913 27.1064 20.9172 27.4736 20.9172H31.9463L32.1311 20.9133C34.1025 20.827 34.0689 19.3433 32.9274 18.1875L32.8354 18.0937L31.8727 17.0809L29.2078 14.2157L29.0135 13.9963C28.5799 13.4344 28.5646 12.6335 28.9941 12.0519L32.081 7.8657L32.4092 7.4107L32.5504 7.20465L32.7662 6.87375L32.9085 6.64214L33.0464 6.4046L33.177 6.16356C33.198 6.12323 33.2186 6.08286 33.2387 6.04249L33.3531 5.8008C33.389 5.72053 33.4225 5.6407 33.4531 5.56172L33.536 5.32771C33.805 4.48195 33.6712 3.78771 32.5091 3.78771H27.525L27.3883 3.79626C27.0281 3.84151 26.7078 4.06371 26.5336 4.39746L25.086 7.15131L23.8006 9.63621C22.4608 12.1895 21.5071 11.9864 21.191 10.9959L21.1464 10.8333L21.1126 10.6592C21.0891 10.51 21.077 10.3507 21.077 10.1858V4.72854L21.0709 4.58018C20.9977 3.70002 20.2796 3.0091 19.4045 3.0091Z" fill="white"/>
</svg>
