<svg width="27" height="27" viewBox="0 0 27 27" fill="none" xmlns="http://www.w3.org/2000/svg">
<path fill-rule="evenodd" clip-rule="evenodd" d="M2.7679 2.44095L3.39617 1.80309C4.5767 0.636984 6.26988 0.205632 7.82591 0.70474C10.1565 1.45781 11.7708 3.07541 12.5196 5.40498C13.0245 6.94939 12.5851 8.65822 11.4068 9.83657L10.3522 10.8911C10.2664 10.977 10.2516 11.1196 10.2887 11.1729C11.6894 13.1656 13.3866 14.8584 15.3596 16.2218C15.4237 16.2676 15.5474 16.2555 15.6321 16.1708L16.6866 15.1163C17.8699 13.9331 19.5723 13.4994 21.1161 14.0093C23.4487 14.7507 25.0667 16.3688 25.8152 18.6976C26.3363 20.2756 25.8559 21.9909 24.5979 23.2488L24.0943 23.7428C22.6082 25.2406 20.5914 26.0749 18.5046 26.0749C17.7727 26.0749 17.0354 25.967 16.3159 25.7547C12.7107 24.6903 10.4455 23.2867 6.84105 19.6823C3.23644 16.0777 1.83278 13.8124 0.767538 10.2042C-0.0392509 7.45166 0.731364 4.47743 2.7679 2.44095ZM9.66585 6.33011C9.2101 4.91227 8.31518 4.01557 6.90655 3.5604C6.43456 3.409 5.902 3.54468 5.50442 3.9374L4.8974 4.55403C3.62552 5.82591 3.14924 7.66415 3.64559 9.3576C3.67616 9.46112 3.70696 9.56322 3.73808 9.66401L3.92915 10.2538C4.81109 12.8443 6.02582 14.6245 8.96237 17.561L9.28397 17.8802C12.0317 20.5869 13.7747 21.7447 16.269 22.5939L16.8588 22.7849L17.1651 22.8774C17.6106 23.0088 18.062 23.0749 18.5046 23.0749C19.7943 23.0749 21.0438 22.558 21.9789 21.6158L22.4866 21.1176C22.9636 20.6406 23.1168 20.0935 22.9629 19.627C22.5071 18.209 21.6133 17.3152 20.1914 16.8631C19.7261 16.7095 19.2028 16.8428 18.808 17.2376L17.7534 18.2921C16.6447 19.4009 14.8888 19.5722 13.6351 18.6765C11.3874 17.1235 9.43727 15.1785 7.83013 12.892C6.94907 11.6255 7.13047 9.87024 8.23091 8.7698L9.28546 7.71525C9.67824 7.32247 9.81561 6.78825 9.66585 6.33011Z" fill="white"/>
</svg>
