<svg width="139" height="54" viewBox="0 0 139 54" fill="none" xmlns="http://www.w3.org/2000/svg">
<path fill-rule="evenodd" clip-rule="evenodd" d="M133.221 24.8453C130.885 27.4125 128.003 29.4551 124.582 30.9648L138.937 53.8765H122.189L105.023 24.4299H111.146C113.045 24.4299 114.704 24.3123 116.079 24.0721C117.449 23.8503 118.671 23.3639 119.738 22.614C120.726 21.9412 121.526 21.1337 122.117 20.1927C122.717 19.2516 123.142 18.0201 123.419 16.5007C123.66 15.1577 123.597 13.9924 123.246 13.017C122.888 12.0342 122.139 11.2831 121.015 10.7537C120.216 10.38 119.306 10.1594 118.264 10.059C117.238 9.96583 115.93 9.91927 114.362 9.91927H96.0078C94.4945 7.63643 93.0167 5.55332 91.6211 3.74469C90.4276 2.21422 89.3909 1.00724 88.4229 0H119.859C122.902 0 125.503 0.18993 127.697 0.566115C129.885 0.941074 131.83 1.71305 133.538 2.89429C135.278 4.1221 136.551 5.69056 137.373 7.58373C138.188 9.47691 138.341 11.8872 137.826 14.8023C137.095 18.933 135.566 22.266 133.221 24.8453ZM87.3368 5.52281C89.7385 8.59478 92.6414 12.8431 95.6484 17.8364C101.645 27.8329 108.091 40.8315 111.964 53.3473L111.979 53.384V53.4159L111.842 53.623L111.709 53.7112L111.535 53.759L111.322 53.7957C111.22 53.8083 111.113 53.814 110.986 53.8207C110.928 53.8238 110.866 53.827 110.799 53.8313C110.378 53.8619 109.777 53.8778 109.109 53.8778C107.68 53.8778 105.834 53.7957 104.145 53.4612C102.457 53.1414 100.86 52.5508 100.166 51.5141C96.8971 46.4338 88.7533 35.5404 80.1955 29.5949C77.3551 27.6148 74.4302 26.1897 71.7871 25.7093C71.5432 25.6616 71.292 25.6419 71.0077 25.6419C69.2959 25.6211 66.7655 26.5218 63.9399 28.0106C61.1338 29.492 58.0067 31.5322 54.8538 33.6901C53.4335 34.6633 52.0109 35.6604 50.6075 36.6441C45.7731 40.0326 41.1661 43.2618 37.6609 44.8041C36.3313 45.3616 35.1734 45.7243 34.0424 45.7452L33.7495 45.7243C33.3084 45.7047 32.98 45.5552 32.7165 45.3726C32.4702 45.2023 32.2668 44.9965 32.0892 44.7404C31.7277 44.2392 31.4385 43.591 31.1812 42.8619C30.9284 42.2043 30.7011 41.4819 30.4723 40.755C30.1886 39.8539 29.9028 38.9458 29.5637 38.1455C29.1593 37.1995 28.6557 36.3957 28.1472 36.0072C27.8433 35.7879 27.6227 35.7315 27.4107 35.7315L27.2453 35.7377C27.0922 35.7487 26.4084 36.017 25.6132 36.4618C24.8314 36.9091 23.8388 37.5169 22.7311 38.2447C20.4973 39.7213 17.7353 41.6696 14.9807 43.6939C12.9285 45.1964 10.8597 46.7385 8.95611 48.1572C5.72905 50.5625 2.9772 52.6135 1.58757 53.5176L1.27756 53.7014C1.2629 53.7062 1.24774 53.7114 1.23175 53.717C1.13278 53.7514 1.00186 53.7969 0.759233 53.8043L0.276442 53.7014L0.0558781 53.5176L-0.000488281 53.2333C-0.000488281 52.7689 0.343837 51.9932 0.700416 51.2531C0.926721 50.7749 1.16712 50.3119 1.32522 50.0073C1.40939 49.8452 1.47023 49.728 1.49322 49.6773C1.57319 49.4798 1.7649 49.3036 2.03585 49.0547L2.07037 49.023C2.3571 48.7706 2.75902 48.4544 3.28224 48.0464C3.8072 47.6286 4.47736 47.1222 5.29155 46.5071C6.06047 45.9262 6.95785 45.2482 7.98271 44.4561C12.2041 41.1917 18.6887 35.9852 28.0296 27.7275C33.0793 23.2648 36.3889 20.8729 38.6289 19.8864C39.3886 19.5654 40.0393 19.373 40.7267 19.373C41.1053 19.373 41.5024 19.4576 41.7683 19.5911C42.0685 19.732 42.2621 19.9122 42.3944 20.1254C42.6726 20.5298 42.7424 21.0407 42.7424 21.6767C42.7424 23.9987 41.332 27.9003 39.9241 31.6609C39.8513 31.8536 39.7785 32.0461 39.706 32.238C38.3638 35.7869 37.0921 39.1497 37.1107 40.6795C37.0911 41.0324 37.1768 41.2689 37.2614 41.3486L37.3288 41.3314L37.8079 41.1243C38.1718 40.9283 38.6902 40.584 39.309 40.0999C40.5454 39.1515 42.218 37.6333 44.3954 35.4632C48.7712 31.1119 55.1933 24.0882 64.4325 13.4472C70.4624 6.50554 74.179 2.52068 77.2411 0.863999C78.2913 0.31749 79.2924 0.000122536 80.3952 0.000122536C80.8179 0.000122536 81.2395 0.0515875 81.6328 0.150841C82.0776 0.269701 82.4195 0.465758 82.8202 0.743914C83.1964 1.01594 83.6363 1.38723 84.1154 1.83938C85.0393 2.74002 86.1201 3.98376 87.3368 5.52281Z" fill="white"/>
</svg>
