<svg width="212" height="32" viewBox="0 0 212 32" fill="none" xmlns="http://www.w3.org/2000/svg">
<path fill-rule="evenodd" clip-rule="evenodd" d="M181.095 8.04798C179.792 8.04798 178.54 8.3115 177.378 8.8696C176.195 9.41263 174.953 10.1826 173.662 11.1484L175.58 0C175.58 0 168.768 2.17704 168.422 3.9236C165.999 16.0554 163.269 31.1643 163.269 31.1643H170.214L172.957 15.2288C173.714 14.7452 174.38 14.422 174.988 14.1874C175.619 13.9737 176.218 13.8912 176.79 13.8912C177.54 13.8912 178.113 13.9835 178.53 14.2003C178.937 14.4281 179.219 14.7793 179.381 15.3033C179.504 15.7301 179.526 16.3869 179.442 17.2958C179.355 18.1888 179.248 19.0989 179.087 20.0094L177.165 31.1643H184.139L186.665 16.5243C187.131 13.7732 186.898 11.6659 185.947 10.2167C184.993 8.78074 183.353 8.04798 181.095 8.04798ZM18.2533 12.5133C18.5608 11.9958 18.7936 11.3131 18.9553 10.4722C19.0749 9.72833 19.0424 9.06692 18.8419 8.54111C18.6574 7.99931 18.2629 7.57897 17.6516 7.28931C17.2214 7.08882 16.7171 6.96583 16.167 6.90433C15.6107 6.84775 14.8891 6.82346 14.0416 6.82346H11.5737L10.1989 14.8616H12.3144C13.3335 14.8616 14.22 14.8001 14.9832 14.6706C15.7304 14.5446 16.3675 14.2632 16.9529 13.8638C17.4898 13.4837 17.9394 13.0406 18.2533 12.5133ZM26.7278 9.53738C26.3333 11.8048 25.5052 13.6778 24.2439 15.0815C22.9724 16.5098 21.4266 17.645 19.5731 18.4943L27.3296 31.1642H18.2761L11.9328 20.2279H9.27395L7.38811 31.1642H0L5.13358 1.33596H17.024C18.6574 1.33596 20.0712 1.44112 21.252 1.63976C22.4389 1.83902 23.4902 2.28703 24.4121 2.94199C25.3533 3.62308 26.0359 4.47853 26.479 5.53937C26.9221 6.57285 26.9836 7.9086 26.7278 9.53738ZM44.4153 23.3234C44.7708 22.5101 45.065 21.3924 45.3113 19.9693C45.5343 18.6477 45.6219 17.5204 45.557 16.6324C45.4986 15.7431 45.3113 15.0347 45.0134 14.5042C44.7096 13.9381 44.3114 13.5467 43.8363 13.3189C43.3542 13.1055 42.7785 12.9984 42.1251 12.9984C41.4975 12.9984 40.9219 13.0907 40.3878 13.2816C39.8478 13.4837 39.3208 13.8637 38.8094 14.4009C38.2984 14.923 37.8743 15.6284 37.4894 16.5355C37.0949 17.4463 36.7815 18.588 36.5417 19.9693C36.2929 21.3392 36.225 22.4566 36.3028 23.3105C36.3833 24.153 36.5518 24.8372 36.8332 25.3581C37.0949 25.8578 37.4995 26.2397 38.0167 26.4807C38.5216 26.728 39.1231 26.851 39.7897 26.851C40.3555 26.851 40.9379 26.728 41.5621 26.4807C42.1771 26.2397 42.6977 25.887 43.1343 25.3904C43.6358 24.8212 44.0657 24.1306 44.4153 23.3234ZM33.9443 11.1384C36.351 9.01827 39.3494 7.97342 42.9726 7.97342C46.6373 7.97342 49.2703 9.03119 50.9295 11.1627C52.5823 13.2995 53.0678 16.2188 52.4242 19.9253C51.7933 23.6358 50.3087 26.5499 47.9281 28.6722C45.557 30.8102 42.5325 31.876 38.8774 31.876C35.2385 31.876 32.5956 30.8102 30.9426 28.6722C29.2996 26.5499 28.7917 23.6358 29.4226 19.9253C30.0791 16.1976 31.5769 13.2589 33.9443 11.1384ZM67.1838 8.04798C65.5375 8.04798 64.0462 8.23063 62.6551 8.65282C61.2871 9.04733 60.1063 9.59098 59.1005 10.2653C58.0913 10.9609 57.2758 11.7548 56.6777 12.6364C56.0729 13.5306 55.6621 14.485 55.4939 15.4908C55.2027 17.2309 55.3903 18.6478 56.0954 19.7105C56.7848 20.8006 57.9652 21.6059 59.6115 22.1508C60.1905 22.3516 60.8793 22.5312 61.6686 22.6895C62.4451 22.8399 63.0856 22.9776 63.6 23.1086C64.5508 23.3574 65.1753 23.6129 65.4662 23.8752C65.7607 24.1436 65.8736 24.5302 65.7866 25.0587C65.6636 25.7285 65.1944 26.2103 64.4118 26.5258C63.6129 26.8299 62.7006 26.9916 61.7366 26.9916C60.7988 26.9916 59.919 26.8782 59.1395 26.6519C58.3696 26.424 57.6836 26.17 57.0981 25.8579C56.393 25.528 55.8561 25.2174 55.4939 24.9022C55.3757 24.8015 55.2618 24.7055 55.152 24.6131C54.9161 24.4143 54.6995 24.2317 54.5007 24.0529H53.9349L52.8996 29.9934C53.7861 30.4737 54.921 30.8876 56.3186 31.2402C57.7066 31.6059 59.2333 31.7953 60.8667 31.7953C62.6551 31.7953 64.2467 31.5994 65.6052 31.2061C66.9704 30.8264 68.1607 30.2683 69.2477 29.5663C70.26 28.9098 71.0979 28.098 71.7513 27.1534C72.4013 26.1974 72.8186 25.1977 72.9936 24.1436C73.2906 22.4614 73.1163 21.1238 72.4564 20.1213C71.803 19.1072 70.7064 18.3407 69.2056 17.841C68.5328 17.5836 67.8274 17.3911 67.0707 17.2488C66.3302 17.1128 65.6636 16.9754 65.1009 16.8269C63.9945 16.5357 63.299 16.2608 63.0047 15.9597C62.7006 15.6606 62.6034 15.2759 62.6911 14.7581C62.7975 14.1791 63.2215 13.7246 63.9653 13.3753C64.735 13.0309 65.6052 12.8513 66.6113 12.8513C67.3649 12.8513 68.0894 12.9386 68.7788 13.1053C69.4676 13.2818 70.0822 13.5112 70.6093 13.7895C71.0656 14.001 71.5084 14.2762 71.9875 14.5963C72.4564 14.8958 72.7863 15.148 72.9936 15.3389H73.5332L74.52 9.64571C73.6986 9.21061 72.6535 8.83239 71.4149 8.51691C70.1437 8.19835 68.7397 8.04798 67.1838 8.04798ZM90.3991 23.3234C90.7708 22.5101 91.0651 21.3924 91.3111 19.9693C91.5245 18.6477 91.6217 17.5204 91.5571 16.6324C91.4922 15.7431 91.3111 15.0347 91.0135 14.5042C90.706 13.9381 90.3084 13.5467 89.8361 13.3189C89.3379 13.1055 88.7752 12.9984 88.1184 12.9984C87.5007 12.9984 86.922 13.0907 86.3878 13.2816C85.8476 13.4837 85.3236 13.8637 84.803 14.4009C84.3111 14.923 83.868 15.6284 83.4833 16.5355C83.0918 17.4463 82.7714 18.588 82.5353 19.9693C82.293 21.3392 82.2186 22.4566 82.309 23.3105C82.3769 24.153 82.555 24.8372 82.8265 25.3581C83.1081 25.8578 83.4833 26.2397 84.014 26.4807C84.5312 26.728 85.1102 26.851 85.7735 26.851C86.3491 26.851 86.9444 26.728 87.5557 26.4807C88.1768 26.2397 88.7039 25.887 89.1181 25.3904C89.6387 24.8212 90.0658 24.1306 90.3991 23.3234ZM79.9576 11.1384C82.3446 9.01827 85.343 7.97342 88.9852 7.97342C92.6404 7.97342 95.2867 9.03119 96.9201 11.1627C98.5796 13.2995 99.071 16.2188 98.4338 19.9253C97.7869 23.6358 96.2992 26.5499 93.9309 28.6722C91.5571 30.8102 88.5357 31.876 84.8774 31.876C81.2417 31.876 78.5926 30.8102 76.9399 28.6722C75.2929 26.5499 74.7886 23.6358 75.419 19.9253C76.0724 16.1976 77.5702 13.2589 79.9576 11.1384ZM135.574 10.0518C135.118 9.38361 134.517 8.87932 133.747 8.54753C132.974 8.21145 132.081 8.04786 131.046 8.04786C129.829 8.04786 128.574 8.3778 127.27 9.06012C125.98 9.73476 124.557 10.6938 123.004 11.9539C122.687 10.6456 122.066 9.68648 121.148 9.0183C120.213 8.3778 119.08 8.04786 117.712 8.04786C116.457 8.04786 115.283 8.31169 114.18 8.86948C113.074 9.41282 111.883 10.1828 110.58 11.1483L111.013 8.66899H104.049L100.19 31.1642H107.141L109.881 15.2287C110.457 14.8619 111.052 14.5445 111.624 14.2761C112.22 14.0012 112.793 13.8911 113.355 13.8911C114.115 13.8911 114.665 13.9834 115.047 14.2002C115.428 14.428 115.668 14.7742 115.794 15.261C115.911 15.7431 115.92 16.3578 115.807 17.1422C115.755 17.8327 115.626 18.6373 115.474 19.5818L115.419 19.9253L113.472 31.1642H120.472L123.214 15.2287C123.9 14.7792 124.515 14.4701 125.068 14.2275C125.621 13.9834 126.174 13.8911 126.705 13.8911C127.461 13.8911 128.024 13.9834 128.393 14.2002C128.768 14.428 129.018 14.7742 129.131 15.261C129.266 15.7431 129.266 16.3578 129.163 17.1293C129.095 17.8864 128.943 18.8159 128.749 19.9253L126.815 31.1642H133.801L136.325 16.5245C136.596 14.9231 136.664 13.6211 136.519 12.6316C136.373 11.6304 136.069 10.7778 135.574 10.0518ZM150.308 26.4807C150.994 26.1975 151.637 25.8063 152.239 25.3014L153.048 20.6079C151.844 20.726 150.858 20.8364 150.133 20.9283C149.383 21.0156 148.648 21.1807 147.898 21.428C147.258 21.6497 146.727 21.9731 146.326 22.3984C145.902 22.84 145.631 23.4205 145.514 24.1434C145.339 25.1978 145.488 25.9226 145.977 26.3122C146.462 26.7005 147.283 26.9075 148.373 26.9075C148.968 26.9075 149.629 26.7685 150.308 26.4807ZM146.387 8.44074C147.972 8.1723 149.551 8.03332 151.097 8.03332C154.93 8.03332 157.628 8.6689 159.158 9.94807C160.672 11.2503 161.215 13.2087 160.762 15.8547L158.129 31.1641H151.23L151.637 28.7884C151.41 28.9569 151.192 29.1157 150.983 29.268C150.694 29.4782 150.422 29.6758 150.169 29.8689C149.742 30.1939 149.176 30.5107 148.49 30.8409C147.824 31.1303 147.171 31.3683 146.559 31.5281C145.938 31.6948 145.1 31.7692 144.042 31.7692C142.079 31.7692 140.562 31.101 139.485 29.7671C138.401 28.4455 138.039 26.7556 138.388 24.7111C138.686 23.0454 139.236 21.6964 140.074 20.6697C140.911 19.6359 142.021 18.8158 143.353 18.2257C144.718 17.6111 146.297 17.176 148.079 16.9512C149.868 16.7021 151.78 16.5096 153.814 16.3722L153.821 16.2738C154.051 15.0217 153.743 14.1629 152.909 13.6859C152.087 13.2087 150.764 12.9809 148.952 12.9809C148.124 12.9809 147.145 13.1198 146.009 13.4221C144.858 13.7327 143.719 14.1112 142.6 14.5804H141.992L142.923 9.14121C143.654 8.95856 144.812 8.71595 146.387 8.44074ZM200.645 26.4807C201.318 26.1975 201.978 25.8063 202.58 25.3014L203.392 20.6079C202.185 20.726 201.225 20.8364 200.474 20.9283C199.727 21.0156 198.989 21.1807 198.242 21.428C197.595 21.6497 197.068 21.9731 196.664 22.3984C196.253 22.84 195.974 23.4205 195.848 24.1434C195.667 25.1978 195.839 25.9226 196.318 26.3122C196.816 26.7005 197.624 26.9075 198.717 26.9075C199.316 26.9075 199.956 26.7685 200.645 26.4807ZM201.447 8.03332C205.284 8.03332 207.963 8.6689 209.499 9.94807C211.025 11.2503 211.553 13.2087 211.1 15.8547L208.473 31.1641H201.567L201.978 28.7884C201.791 28.9256 201.611 29.0564 201.438 29.1824C201.104 29.4249 200.794 29.6498 200.506 29.8689C200.079 30.1939 199.517 30.5107 198.824 30.8409C198.152 31.1303 197.511 31.3683 196.897 31.5281C196.279 31.6948 195.444 31.7692 194.39 31.7692C192.42 31.7692 190.9 31.101 189.825 29.7671C188.742 28.4455 188.386 26.7556 188.732 24.7111C189.027 23.0454 189.589 21.6964 190.411 20.6697C191.252 19.6359 192.359 18.8158 193.681 18.2257C195.066 17.6111 196.641 17.176 198.423 16.9512C200.202 16.7021 202.124 16.5096 204.139 16.3722L204.165 16.2738C204.388 15.0217 204.081 14.1629 203.269 13.6859C202.434 13.2087 201.105 12.9809 199.297 12.9809C198.456 12.9809 197.485 13.1198 196.347 13.4221C195.198 13.7327 194.053 14.1112 192.94 14.5804H192.329L193.267 9.14121C193.992 8.95856 195.15 8.71595 196.722 8.44074C198.307 8.1723 199.876 8.03332 201.447 8.03332Z" fill="white"/>
</svg>
