<svg width="36" height="39" viewBox="0 0 36 39" fill="none" xmlns="http://www.w3.org/2000/svg">
<path fill-rule="evenodd" clip-rule="evenodd" d="M17.8993 33.0242L18.1584 31.3459L3.41946 31.3446C1.6544 31.3446 0.223353 29.9141 0.222656 28.1491V10.2159C0.222656 8.45032 1.65391 7.01907 3.41946 7.01907H18.1584L17.8993 5.33907C17.7011 4.0592 18.4527 3.20438 18.9035 2.69175L18.9058 2.68909L18.9799 2.60496C19.1734 2.38287 19.7631 1.71196 22.5309 0.877427C25.2086 0.0706553 25.9308 0.259519 26.1676 0.323034C29.2374 1.12602 31.754 3.58756 33.4441 7.44222C34.8722 10.6962 35.6588 14.8706 35.6588 19.1846C35.6588 23.4986 34.8722 27.6662 33.4441 30.9202C31.7536 34.7761 29.2378 37.2372 26.1672 38.0402C25.9892 38.0887 25.8048 38.1101 25.6204 38.1037C24.5668 38.0425 23.5269 37.8345 22.5309 37.4858C19.7631 36.6509 19.1734 35.9804 18.9799 35.7583L18.9058 35.6742C18.4554 35.1635 17.7007 34.308 17.8993 33.0242ZM25.6204 3.77479C24.7657 3.83242 22.3054 4.45522 21.7005 4.88847L21.6627 4.93474L21.6267 4.97553C21.5551 5.05673 21.4745 5.14813 21.42 5.21993L22.1812 9.05036C22.6241 9.06635 23.3607 9.08738 24.1384 9.10841C25.153 9.13449 25.7819 9.16099 26.5273 9.19254C27.1359 9.22005 28.2423 9.42444 28.4691 9.98993C30.3139 14.5433 30.3139 23.5957 28.4691 28.1491C28.242 28.7139 27.1355 29.2703 26.5273 29.2971C26.1663 29.3124 25.8322 29.2931 25.4686 29.2722C25.0813 29.2499 24.6606 29.2256 24.138 29.2391C23.359 29.2605 22.6237 29.2815 22.1812 29.2971L21.42 33.0242C21.4764 33.0988 21.5607 33.1941 21.634 33.277L21.6341 33.277L21.6627 33.3094L21.7005 33.3569C22.3054 33.7902 24.4939 34.3405 25.3487 34.3986C30.1817 32.9987 32.0483 25.8558 32.0483 19.1846C32.0483 12.5134 30.4534 5.17424 25.6204 3.77479ZM18.6451 10.1267L7.71067 10.4809L17.0989 18.0659L23.5518 12.5264C23.7877 12.5331 23.6896 12.5168 23.5859 12.4996L23.5834 12.4992L23.6199 12.4679C23.3642 12.4626 23.4754 12.4813 23.5834 12.4992L23.5518 12.5264L23.5387 12.526C22.6928 12.5045 21.8936 12.4839 21.4414 12.4679C20.0888 12.406 18.9436 11.4478 18.6451 10.1267ZM5.43721 27.578C5.08852 27.5883 4.18383 27.6151 4.18201 27.5744V13.216L15.9576 22.476C16.5321 22.9409 17.3534 22.9409 17.9279 22.476L25.9905 15.8586C26.3754 19.1905 26.1609 23.0935 25.3487 25.7881C24.882 25.8052 24.3709 25.8187 23.8768 25.8317C23.7633 25.8347 23.6508 25.8377 23.5399 25.8406C22.6945 25.8617 21.8953 25.8831 21.4431 25.8987C20.09 25.9593 19.2783 26.2533 18.9799 27.5744H5.57061C5.56181 27.5743 5.51246 27.5757 5.43721 27.578Z" fill="white"/>
</svg>
