<svg width="40" height="41" viewBox="0 0 40 41" fill="none" xmlns="http://www.w3.org/2000/svg">
<path fill-rule="evenodd" clip-rule="evenodd" d="M1.08143 40.2547L2.18123 38.8947C2.62949 38.3414 3.33136 37.4756 4.21464 36.4166C4.39247 36.3998 4.61767 36.387 4.88774 36.3715C7.77585 36.2062 15.7954 35.7472 25.8852 27.0692C35.2763 18.9948 38.1865 9.4351 39.1289 4.22459C39.1377 4.18304 39.1442 4.13931 39.1464 4.09777C39.2907 2.76181 38.6982 1.45422 37.5962 0.678015C36.5007 -0.091645 35.0707 -0.216257 33.8572 0.356594C33.8375 0.36534 33.8157 0.376273 33.7982 0.385019C29.4133 2.66986 27.0036 3.24815 22.9785 4.21411C22.5816 4.30936 22.169 4.40839 21.7372 4.5132C18.0091 5.41871 15.2913 7.97913 13.4108 10.7757C13.354 10.8588 13.2993 10.9397 13.2469 11.025C13.1288 10.686 12.908 10.3821 12.6019 10.1656C12.0246 9.75457 11.2527 9.73708 10.6558 10.1154C10.6558 10.1154 4.06792 14.2698 1.79829 22.2374C0.702302 26.0895 1.23287 29.2665 1.62645 31.6232C1.75896 32.4167 1.87594 33.1172 1.91009 33.7191C1.27728 34.4752 1.36351 34.5061 1.43782 34.5328C1.49009 34.5516 1.53646 34.5682 1.32246 34.8337L0.222656 39.9163L1.08143 40.2547ZM35.6699 3.689C34.7906 8.46649 32.106 17.1057 23.6045 24.4172C17.5323 29.641 12.911 30.8342 9.18142 31.7971C8.72242 31.9156 8.27692 32.0307 7.84389 32.1493C9.36004 30.4124 10.333 29.4698 11.6065 28.2362C12.0981 27.76 12.6345 27.2404 13.2642 26.6149C18.5142 21.4019 27.4529 14.2432 27.4529 14.2432L28.8194 13.1478L26.6329 10.419L25.2663 11.5123C25.2663 11.5123 16.1527 18.8175 10.8001 24.133C10.1712 24.7564 9.63479 25.2751 9.14302 25.7507C7.85664 26.9947 6.8756 27.9434 5.3428 29.6976C4.67661 27.7803 4.35857 26.0221 5.16321 23.1949C6.04438 20.1053 7.69744 17.6979 9.21706 16.0099C9.19959 17.4267 9.40294 18.7015 9.82931 20.0353C10.0698 20.7897 10.787 21.2904 11.5785 21.2532C12.3701 21.2138 13.037 20.6519 13.2075 19.8779C13.2075 19.8779 14.0275 16.126 16.3124 12.7282C17.738 10.6116 19.7387 8.59999 22.5615 7.91339C22.9594 7.81682 23.342 7.72471 23.7117 7.63571C28.096 6.58018 30.664 5.96195 35.3726 3.51189C35.4382 3.48565 35.5191 3.4944 35.5825 3.53813C35.6306 3.5753 35.6634 3.62777 35.6699 3.689Z" fill="white"/>
</svg>
