<svg width="46" height="26" viewBox="0 0 46 26" fill="none" xmlns="http://www.w3.org/2000/svg">
<path fill-rule="evenodd" clip-rule="evenodd" d="M34.6892 0H24.4531L24.0778 0.0245171L23.9589 0.0401406C23.0838 0.155075 22.3419 0.487576 21.6592 0.97218C21.0205 1.44272 20.503 1.97792 19.9577 2.66371L19.6797 3.02367L19.3656 3.45115L19.0491 3.90091L18.7254 4.37641L18.2227 5.13753L16.8609 7.25351C16.1861 6.82512 15.4084 6.6141 14.6434 6.6141C13.7237 6.6141 13.0021 6.86685 12.2858 7.2797C11.8347 7.54996 11.4559 7.83807 11.066 8.18407L10.7651 8.46108L10.675 8.5471L10.3405 8.87966L10.1916 9.03323L9.77595 9.4795L9.64317 9.62645L9.27749 10.0417L8.86853 10.5207L8.37881 11.1083L7.62585 12.005L6.93662 12.8134L6.09899 13.7781L5.53796 14.4123L4.86142 15.163L4.27526 15.7998L3.77197 16.3356L2.81857 17.3247L2.34079 17.8371L2.24502 17.9441L2.09811 18.1188L1.99363 18.2517L1.93527 18.3296C1.7945 18.5212 1.66831 18.7199 1.54722 18.9664L1.44351 19.1955L1.38372 19.3498L1.1845 19.8889L1.06658 20.2342C0.87326 20.8445 0.779297 21.2659 0.779297 21.844V22.1094L0.988303 23.5471L2.46841 25.2295L4.35506 25.7781L5.36803 25.6443L5.55366 25.5998L5.67927 25.5641L7.28594 25.2438L8.30389 24.3183L8.55642 24.0608L8.86457 23.7026L9.15205 23.4012L9.4341 23.1158L9.7823 22.7709L10.4609 22.1201L10.6066 22.2268C11.1243 22.5889 11.7363 22.8403 12.4378 22.9224L12.5425 22.9311L12.5426 22.933L12.9606 22.9735L13.5631 22.9182L13.6776 22.9004C14.4275 22.7835 15.0358 22.5304 15.698 22.1517C16.5498 21.6414 17.327 21.0063 18.3467 20.0665L18.8635 19.584L20.1848 18.3251L20.9852 17.5746L21.2026 17.3759L21.6079 17.0143C21.6722 16.958 21.735 16.9036 21.7961 16.8513L22.1324 16.5687L21.9941 16.433C23.0785 17.4606 24.3978 19.3977 25.5431 21.5244L25.8162 22.0421L26.0233 22.4519L26.2187 22.856C26.9487 24.3444 28.1782 25.1076 29.5998 25.4749C30.2881 25.6611 31.0156 25.7338 31.7602 25.7338H45.2207L40.3515 15.1816L40.4139 15.1106C40.6553 14.82 40.8832 14.5145 41.0974 14.195C42.0295 12.8029 42.5934 11.133 42.8455 9.19728C43.039 7.71222 42.9767 6.36711 42.591 5.15008C42.2001 3.92795 41.5604 2.86391 40.6673 2.00817C39.7448 1.14163 38.6779 0.564804 37.4913 0.288738C36.6437 0.091344 35.715 0 34.6892 0ZM34.6892 3.6697C35.4542 3.6697 36.1083 3.73455 36.6598 3.86299C37.21 3.991 37.699 4.25457 38.1285 4.65787C38.566 5.07706 38.8861 5.61256 39.0928 6.25892C39.2977 6.90529 39.3362 7.7282 39.2065 8.72348C39.0229 10.1338 38.6384 11.2717 38.0487 12.1523C37.5267 12.9314 36.8961 13.569 36.1583 14.0631L35.8766 14.2416L39.4859 22.0641H31.7602C31.4026 22.0641 30.9403 22.0361 30.5177 21.9219C30.095 21.8127 29.6954 21.611 29.5218 21.2571L29.3118 20.8233L29.1492 20.4999C29.1207 20.4439 29.0914 20.3869 29.0615 20.329L28.774 19.7844C27.7571 17.8961 26.1707 15.3351 24.5229 13.7737C23.8119 13.0976 23.0797 12.6111 22.4182 12.4471C22.3571 12.4308 22.2942 12.4241 22.2231 12.4241C21.7946 12.417 21.1612 12.7245 20.4539 13.2327C19.8393 13.6753 19.1632 14.2639 18.4751 14.8977L17.6531 15.6685L16.3587 16.9021L15.8598 17.368C15.1229 18.0471 14.4421 18.6265 13.876 18.9662C13.5987 19.1248 13.3512 19.2373 13.1126 19.2745L12.9703 19.2875L12.897 19.2804C12.7866 19.2737 12.7044 19.2227 12.6384 19.1603C12.5768 19.1022 12.5258 19.0319 12.4814 18.9445C12.4135 18.8161 12.3558 18.6596 12.304 18.4843L12.2074 18.1341L12.0884 17.6725L11.9678 17.2572C11.8666 16.9342 11.7405 16.6597 11.6132 16.5271C11.5562 16.471 11.5109 16.4461 11.4694 16.4372L11.4289 16.433L11.3875 16.4351L11.3519 16.4466C11.3437 16.4501 11.3346 16.4543 11.3246 16.4592L11.2112 16.5225L11.1403 16.5676L10.9789 16.6823L10.7203 16.891L10.4203 17.147L10.0478 17.4821L9.24328 18.2274L8.05672 19.3426L7.19846 20.165L6.82033 20.54L6.49277 20.8723L6.14492 21.2381L5.85419 21.5751L5.75727 21.674L5.57024 21.844L4.76891 22.0039L4.75744 22.0092C4.74226 22.0164 4.72408 22.025 4.6983 22.0312L4.63917 22.039L4.51832 22.0039L4.46311 21.9411L4.449 21.844C4.449 21.7383 4.48731 21.5854 4.53929 21.4203L4.65721 21.0751L4.82289 20.63C4.84291 20.5625 4.8909 20.5024 4.95873 20.4174L4.96736 20.4066L5.02662 20.3377L5.46137 19.8708L6.44728 18.8474L6.97573 18.2846L7.58787 17.6193L8.28695 16.8433L8.87027 16.1837L9.7293 15.1941L10.4363 14.3647L11.1986 13.4568L11.6612 12.9014L12.032 12.4664L12.5377 11.897L12.9861 11.4227L13.2552 11.1567L13.5018 10.9288C13.7375 10.7196 13.9413 10.5654 14.1183 10.4591C14.3085 10.3495 14.4714 10.2838 14.6434 10.2838C14.7382 10.2838 14.8376 10.3127 14.9041 10.3583C14.9793 10.4064 15.0278 10.4679 15.0609 10.5407C15.1166 10.6511 15.1389 10.7849 15.1456 10.9451L15.1571 11.4529L15.1637 11.6415L15.1605 11.755L15.1466 11.8801L15.1344 11.9528L15.097 12.1302L15.0008 12.5104L14.9041 12.8669L14.5824 14.0385L14.4686 14.4741L14.3696 14.8792L14.2895 15.2462C14.2319 15.534 14.1984 15.7739 14.1999 15.9459C14.196 16.0423 14.2089 16.1133 14.2251 16.1517L14.2376 16.1744L14.2545 16.1685L14.3744 16.0978C14.4473 16.0443 14.5449 15.9583 14.6604 15.8415L15.4647 14.9935L16.0584 14.3493L16.5015 13.8516L16.7683 13.5394L16.8875 13.3945L17.0883 13.1361L17.3293 12.8152L17.5421 12.5421L18.1675 11.7697L18.4709 11.3798L18.7543 10.9963L19.1853 10.383L19.6105 9.75198L19.9867 9.17911L21.2856 7.15882L21.7604 6.43926L22.0529 6.00903L22.3276 5.61751L22.5862 5.26394L22.8301 4.9476C23.1855 4.50062 23.4959 4.17674 23.7834 3.96464C24.0024 3.80915 24.2129 3.70799 24.4368 3.67859L24.5729 3.6697H34.6892ZM28.3909 9.75919C28.0288 8.93915 27.6728 8.17797 27.3339 7.49203L33.3071 7.49428L33.5357 7.49619C33.8299 7.50127 34.0818 7.51653 34.2881 7.54197C34.55 7.57628 34.7789 7.65158 34.9797 7.77918C35.2623 7.95991 35.4508 8.21636 35.5408 8.55189L35.6047 8.79282C35.6223 8.87332 35.6253 8.93752 35.6134 9.06194L35.5842 9.30332C35.5424 9.61458 35.4873 9.73278 35.4172 9.84694L35.3421 9.96675C35.3153 10.0109 35.2869 10.0616 35.2567 10.1259C35.1907 10.2687 35.1143 10.316 35.028 10.3446L34.8911 10.3831C34.819 10.405 34.7415 10.438 34.6587 10.5146C34.3904 10.7706 34.0832 10.9367 33.7387 11.0124C33.3931 11.0944 32.9759 11.1346 32.4984 11.1346L28.9775 11.1326C28.7812 10.6594 28.5851 10.2007 28.3909 9.75919Z" fill="white"/>
</svg>
