<svg width="47" height="25" viewBox="0 0 47 25" fill="none" xmlns="http://www.w3.org/2000/svg">
<path fill-rule="evenodd" clip-rule="evenodd" d="M17.5208 5.85329C17.5208 7.44058 18.1746 8.88427 19.2257 9.92827C17.3279 10.9836 15.8737 12.7449 15.222 14.8546C14.6117 14.2179 13.9037 13.6757 13.1221 13.2525C14.1465 12.2123 14.7815 10.7879 14.7815 9.22377C14.7815 6.06337 12.1901 3.47204 9.02976 3.47204C5.86941 3.47204 3.27819 6.06337 3.27819 9.22377C3.27819 10.8111 3.93205 12.2547 4.98324 13.2987C2.37403 14.7495 0.603516 17.535 0.603516 20.7248V23.0956C0.60358 23.8519 1.2167 24.4651 1.97305 24.4651H16.2157H30.4582H44.7007C45.457 24.4651 46.0701 23.8519 46.0702 23.0956V20.7248C46.0702 17.5011 44.2621 14.6901 41.6073 13.2526C42.6317 12.2124 43.2667 10.7879 43.2667 9.22377C43.2667 6.06342 40.6753 3.47204 37.515 3.47204C34.3546 3.47204 31.7632 6.06337 31.7632 9.22377C31.7632 10.8111 32.4171 12.2547 33.4683 13.2987C32.7198 13.7149 32.0402 14.2407 31.4517 14.8547C30.7905 12.714 29.3035 10.9318 27.3648 9.88208C28.3891 8.8419 29.0241 7.41738 29.0241 5.85329C29.0241 2.69289 26.4327 0.101562 23.2723 0.101562C20.112 0.101562 17.5208 2.69289 17.5208 5.85329ZM23.3378 2.94551C24.7499 2.94551 25.8699 4.06553 25.8699 5.47762C25.8699 6.8586 24.7987 7.96012 23.4306 8.00791L23.39 8.00769C23.3494 8.00769 23.3083 8.00818 23.2677 8.00886C21.8879 7.97275 20.8038 6.86686 20.8038 5.47762C20.8038 4.06553 21.9238 2.94551 23.3359 2.94551H23.3378ZM9.18562 11.5472C10.5539 11.4996 11.6255 10.398 11.6255 9.01686C11.6255 7.60478 10.5054 6.48476 9.09517 6.48476C7.68308 6.48476 6.5632 7.60478 6.5632 9.01686C6.5632 10.4063 7.64761 11.512 9.02765 11.5481C9.06827 11.5474 9.10889 11.5469 9.14951 11.5469L9.18562 11.5472ZM40.1107 9.01686C40.1107 10.398 39.039 11.4996 37.6707 11.5472L37.6346 11.5469C37.594 11.5469 37.5534 11.5474 37.5128 11.5481C36.1327 11.512 35.0482 10.4063 35.0482 9.01686C35.0482 7.60478 36.1683 6.48476 37.5804 6.48476C38.9906 6.48476 40.1107 7.60478 40.1107 9.01686ZM28.2681 17.256C28.2681 14.5224 26.1179 12.3532 23.392 12.3255C23.3552 12.3264 23.3183 12.327 23.2815 12.327C23.2688 12.327 23.2566 12.3267 23.2444 12.3265L23.2253 12.3262C20.5263 12.3842 18.4058 14.5413 18.4058 17.256V20.1455V21.0039H28.2681V20.1455V17.256ZM13.6159 20.2168V21.0039H4.57281V20.2168C4.57281 17.7276 6.51714 15.7496 8.99198 15.6964L9.0095 15.6967L9.00961 15.6967C9.0207 15.6969 9.03191 15.6971 9.04348 15.6971C9.07726 15.6971 9.11103 15.6966 9.1448 15.6958C11.6443 15.7211 13.6159 17.7103 13.6159 20.2168ZM42.101 21.0038V20.2168C42.101 17.7104 40.1294 15.7211 37.6299 15.6958C37.5961 15.6966 37.5624 15.6971 37.5286 15.6971C37.517 15.6971 37.5057 15.6969 37.4946 15.6967C37.4887 15.6966 37.4829 15.6965 37.4771 15.6965C35.0022 15.7496 33.0579 17.7276 33.0579 20.2168V21.0038H42.101Z" fill="white"/>
</svg>
