<svg width="703" height="411" viewBox="0 0 703 411" fill="none" xmlns="http://www.w3.org/2000/svg">
<path fill-rule="evenodd" clip-rule="evenodd" d="M600.061 331.667C595.741 331.667 591.593 332.54 587.745 334.389C583.822 336.189 579.707 338.74 575.43 341.94L581.786 305C581.786 305 559.214 312.214 558.067 318.001C550.039 358.2 540.993 408.263 540.993 408.263H564.005L573.094 355.461C575.602 353.858 577.809 352.787 579.825 352.01C581.914 351.302 583.898 351.029 585.794 351.029C588.28 351.029 590.179 351.334 591.561 352.053C592.91 352.808 593.844 353.971 594.379 355.707C594.787 357.122 594.861 359.298 594.583 362.31C594.294 365.269 593.94 368.284 593.404 371.301L587.038 408.263H610.146L618.517 359.753C620.06 350.637 619.288 343.655 616.138 338.853C612.976 334.095 607.541 331.667 600.061 331.667ZM60.4825 346.463C61.5014 344.748 62.2727 342.486 62.8086 339.7C63.2049 337.235 63.0969 335.043 62.4326 333.301C61.8213 331.506 60.5141 330.113 58.4886 329.153C57.0632 328.489 55.3922 328.081 53.5694 327.878C51.7263 327.69 49.335 327.61 46.527 327.61H38.3495L33.7941 354.244H40.8039C44.1805 354.244 47.1179 354.04 49.6468 353.611C52.1226 353.194 54.2337 352.261 56.1737 350.938C57.9526 349.678 59.4422 348.21 60.4825 346.463ZM88.5627 336.602C87.2555 344.115 84.5117 350.321 80.3323 354.972C76.1192 359.705 70.9973 363.467 64.8555 366.281L90.5567 408.263H60.5579L39.5395 372.025H30.7293L24.4805 408.263H0L17.0101 309.427H56.409C61.8213 309.427 66.5061 309.775 70.4186 310.433C74.3514 311.094 77.835 312.578 80.8896 314.748C84.0084 317.005 86.2703 319.84 87.7385 323.355C89.2067 326.779 89.4104 331.205 88.5627 336.602ZM147.17 382.282C148.348 379.587 149.323 375.884 150.139 371.168C150.878 366.789 151.168 363.054 150.953 360.112C150.76 357.165 150.139 354.817 149.152 353.06C148.145 351.184 146.826 349.887 145.252 349.132C143.654 348.425 141.747 348.07 139.582 348.07C137.502 348.07 135.595 348.376 133.825 349.009C132.036 349.678 130.29 350.938 128.595 352.718C126.902 354.448 125.497 356.785 124.221 359.791C122.914 362.808 121.876 366.592 121.081 371.168C120.257 375.707 120.032 379.41 120.289 382.239C120.556 385.031 121.115 387.298 122.047 389.024C122.914 390.68 124.255 391.945 125.969 392.744C127.642 393.563 129.635 393.971 131.843 393.971C133.718 393.971 135.648 393.563 137.716 392.744C139.754 391.945 141.479 390.777 142.926 389.131C144.588 387.245 146.012 384.957 147.17 382.282ZM112.475 341.907C120.449 334.882 130.384 331.42 142.39 331.42C154.533 331.42 163.257 334.925 168.755 341.988C174.232 349.068 175.841 358.741 173.708 371.023C171.617 383.317 166.698 392.973 158.81 400.006C150.953 407.09 140.932 410.621 128.82 410.621C116.763 410.621 108.006 407.09 102.528 400.006C97.0845 392.973 95.4013 383.317 97.4921 371.023C99.6674 358.671 104.63 348.933 112.475 341.907ZM222.614 331.667C217.159 331.667 212.217 332.272 207.608 333.671C203.075 334.978 199.163 336.78 195.83 339.014C192.486 341.319 189.784 343.95 187.802 346.871C185.798 349.834 184.437 352.996 183.879 356.329C182.915 362.095 183.536 366.79 185.872 370.311C188.157 373.923 192.068 376.591 197.523 378.397C199.442 379.062 201.724 379.657 204.339 380.182C206.912 380.68 209.034 381.137 210.739 381.571C213.889 382.395 215.959 383.242 216.923 384.111C217.899 385 218.273 386.281 217.984 388.032C217.577 390.251 216.022 391.848 213.429 392.893C210.782 393.901 207.759 394.437 204.565 394.437C201.457 394.437 198.542 394.061 195.959 393.311C193.408 392.556 191.135 391.714 189.195 390.68C186.859 389.587 185.08 388.558 183.879 387.514C183.489 387.181 183.113 386.864 182.75 386.559L182.747 386.556C181.965 385.897 181.247 385.292 180.588 384.7H178.714L175.283 404.383C178.221 405.975 181.981 407.346 186.612 408.515C191.211 409.726 196.27 410.354 201.682 410.354C207.608 410.354 212.882 409.705 217.383 408.402C221.907 407.143 225.851 405.294 229.453 402.968C232.807 400.793 235.583 398.103 237.748 394.973C239.902 391.805 241.285 388.493 241.865 385C242.849 379.426 242.271 374.994 240.085 371.672C237.92 368.312 234.286 365.772 229.313 364.116C227.084 363.263 224.746 362.626 222.239 362.154C219.786 361.703 217.577 361.248 215.712 360.756C212.046 359.791 209.742 358.88 208.766 357.883C207.759 356.891 207.437 355.617 207.727 353.901C208.08 351.982 209.485 350.477 211.949 349.319C214.5 348.178 217.383 347.583 220.717 347.583C223.214 347.583 225.615 347.872 227.899 348.424C230.181 349.009 232.218 349.769 233.964 350.691C235.476 351.392 236.943 352.304 238.531 353.365C240.085 354.357 241.178 355.193 241.865 355.826H243.653L246.922 336.961C244.201 335.519 240.738 334.266 236.634 333.221C232.422 332.165 227.77 331.667 222.614 331.667ZM299.538 382.282C300.77 379.587 301.745 375.884 302.56 371.168C303.267 366.789 303.589 363.054 303.375 360.112C303.16 357.165 302.56 354.817 301.574 353.06C300.555 351.184 299.237 349.887 297.672 349.132C296.022 348.425 294.157 348.07 291.981 348.07C289.934 348.07 288.016 348.376 286.247 349.009C284.456 349.678 282.72 350.938 280.995 352.718C279.365 354.448 277.897 356.785 276.622 359.791C275.325 362.808 274.264 366.592 273.481 371.168C272.678 375.707 272.432 379.41 272.731 382.239C272.956 385.031 273.546 387.298 274.446 389.024C275.379 390.68 276.622 391.945 278.381 392.744C280.095 393.563 282.013 393.971 284.211 393.971C286.118 393.971 288.091 393.563 290.116 392.744C292.174 391.945 293.921 390.777 295.293 389.131C297.018 387.245 298.433 384.957 299.538 382.282ZM264.94 341.907C272.849 334.882 282.785 331.42 294.853 331.42C306.964 331.42 315.733 334.925 321.145 341.988C326.644 349.068 328.272 358.741 326.161 371.023C324.017 383.317 319.088 392.973 311.241 400.006C303.375 407.09 293.363 410.621 281.242 410.621C269.195 410.621 260.417 407.09 254.941 400.006C249.484 392.973 247.813 383.317 249.901 371.023C252.066 358.671 257.029 348.933 264.94 341.907ZM449.225 338.307C447.715 336.093 445.721 334.422 443.17 333.322C440.609 332.209 437.65 331.667 434.22 331.667C430.19 331.667 426.032 332.76 421.711 335.021C417.435 337.256 412.72 340.434 407.575 344.609C406.524 340.274 404.466 337.096 401.424 334.882C398.325 332.76 394.574 331.667 390.041 331.667C385.882 331.667 381.992 332.541 378.336 334.389C374.67 336.189 370.726 338.741 366.408 341.94L367.844 333.725H344.768L331.981 408.263H355.014L364.091 355.46C365.999 354.245 367.972 353.193 369.868 352.304C371.842 351.393 373.739 351.028 375.603 351.028C378.122 351.028 379.944 351.334 381.209 352.052C382.473 352.807 383.267 353.955 383.685 355.567C384.071 357.165 384.103 359.202 383.728 361.801C383.555 364.089 383.126 366.755 382.624 369.885C382.564 370.257 382.503 370.637 382.441 371.023L375.989 408.263H399.183L408.272 355.46C410.544 353.971 412.58 352.947 414.413 352.143C416.246 351.334 418.079 351.028 419.837 351.028C422.344 351.028 424.209 351.334 425.431 352.052C426.674 352.807 427.501 353.955 427.875 355.567C428.325 357.165 428.325 359.202 427.982 361.758C427.758 364.267 427.254 367.347 426.611 371.023L420.202 408.263H443.351L451.712 359.754C452.612 354.448 452.837 350.134 452.355 346.855C451.873 343.538 450.865 340.712 449.225 338.307ZM498.046 392.744C500.318 391.805 502.452 390.509 504.445 388.836L507.124 373.284C503.137 373.676 499.869 374.041 497.466 374.346C494.981 374.635 492.547 375.183 490.061 376.002C487.939 376.736 486.181 377.808 484.852 379.217C483.449 380.68 482.548 382.604 482.162 384.999C481.583 388.493 482.076 390.895 483.694 392.186C485.302 393.472 488.024 394.158 491.636 394.158C493.608 394.158 495.795 393.698 498.046 392.744ZM485.055 332.968C490.308 332.079 495.539 331.618 500.66 331.618C513.363 331.618 522.3 333.724 527.37 337.963C532.387 342.278 534.188 348.767 532.687 357.535L523.962 408.262H501.101L502.452 400.391C501.699 400.949 500.976 401.475 500.282 401.98C499.325 402.676 498.425 403.331 497.585 403.971C496.17 405.048 494.294 406.097 492.022 407.192C489.816 408.15 487.65 408.939 485.624 409.469C483.567 410.021 480.79 410.268 477.285 410.268C470.779 410.268 465.752 408.053 462.184 403.634C458.593 399.254 457.392 393.655 458.55 386.88C459.536 381.361 461.358 376.891 464.135 373.489C466.91 370.064 470.586 367.346 475.002 365.391C479.525 363.354 484.756 361.913 490.661 361.168C496.589 360.343 502.923 359.705 509.664 359.249L509.686 358.923C510.448 354.774 509.429 351.929 506.664 350.348C503.941 348.767 499.557 348.012 493.555 348.012C490.811 348.012 487.565 348.473 483.801 349.474C479.986 350.503 476.214 351.758 472.505 353.312H470.49L473.577 335.289C475.999 334.684 479.837 333.88 485.055 332.968ZM664.84 392.744C667.069 391.805 669.256 390.509 671.25 388.836L673.94 373.284C669.941 373.676 666.759 374.041 664.271 374.346C661.797 374.635 659.352 375.183 656.876 376.002C654.733 376.736 652.986 377.808 651.646 379.217C650.285 380.68 649.362 382.604 648.944 384.999C648.344 388.493 648.913 390.895 650.499 392.186C652.15 393.472 654.829 394.158 658.452 394.158C660.435 394.158 662.557 393.698 664.84 392.744ZM667.497 331.618C680.21 331.618 689.085 333.724 694.175 337.963C699.234 342.278 700.982 348.767 699.481 357.535L690.777 408.262H667.895L669.256 400.391C668.637 400.845 668.04 401.278 667.465 401.696C666.358 402.499 665.332 403.245 664.379 403.971C662.964 405.048 661.1 406.097 658.805 407.192C656.577 408.15 654.455 408.939 652.418 409.469C650.371 410.021 647.606 410.268 644.111 410.268C637.584 410.268 632.548 408.053 628.988 403.634C625.397 399.254 624.219 393.655 625.366 386.88C626.341 381.361 628.205 376.891 630.929 373.489C633.715 370.064 637.381 367.346 641.763 365.391C646.351 363.354 651.571 361.913 657.477 361.168C663.372 360.343 669.739 359.705 676.415 359.249L676.501 358.923C677.241 354.774 676.223 351.929 673.532 350.348C670.767 348.767 666.362 348.012 660.371 348.012C657.583 348.012 654.369 348.473 650.596 349.474C646.791 350.503 642.997 351.758 639.309 353.312H637.283L640.392 335.289C642.793 334.684 646.631 333.88 651.839 332.968C657.09 332.079 662.29 331.618 667.497 331.618Z" fill="white"/>
<path fill-rule="evenodd" clip-rule="evenodd" d="M674.2 125.177C662.433 138.11 647.913 148.402 630.676 156.008L703 271.443H618.619L532.132 123.084H562.982C572.551 123.084 580.91 122.491 587.837 121.281C594.739 120.164 600.894 117.713 606.271 113.935C611.247 110.545 615.279 106.477 618.254 101.735C621.28 96.9941 623.422 90.7895 624.817 83.1342C626.033 76.3679 625.712 70.4968 623.947 65.5826C622.144 60.6313 618.366 56.8469 612.704 54.1799C608.679 52.2969 604.092 51.1856 598.844 50.6794C593.677 50.2102 587.084 49.9756 579.188 49.9756H486.713C479.088 38.4741 471.643 27.9789 464.611 18.8666C458.598 11.1558 453.375 5.07473 448.498 0H606.883C622.212 0 635.318 0.956914 646.369 2.85222C657.395 4.74136 667.193 8.63075 675.799 14.5821C684.565 20.7681 690.98 28.6704 695.122 38.2087C699.228 47.7469 700 59.8905 697.401 74.5776C693.721 95.3889 686.016 112.181 674.2 125.177ZM443.026 27.8252C455.127 43.3025 469.752 64.7065 484.902 89.8641C515.116 140.229 547.589 205.719 567.104 268.776L567.178 268.961V269.122L566.487 270.165L565.82 270.61L564.943 270.851L563.869 271.036C563.357 271.099 562.814 271.128 562.176 271.161C561.884 271.177 561.571 271.193 561.233 271.215C559.115 271.369 556.084 271.449 552.719 271.449C545.521 271.449 536.217 271.036 527.71 269.35C519.203 267.739 511.158 264.763 507.664 259.54C491.193 233.945 450.163 179.061 407.046 149.106C392.736 139.13 377.999 131.95 364.683 129.53C363.454 129.289 362.189 129.19 360.756 129.19C352.132 129.085 339.383 133.623 325.147 141.124C311.009 148.588 295.254 158.867 279.369 169.739C272.213 174.642 265.046 179.666 257.975 184.622C233.618 201.694 210.407 217.963 192.747 225.734C186.048 228.543 180.214 230.37 174.516 230.475L173.041 230.37C170.818 230.271 169.164 229.518 167.836 228.598C166.595 227.74 165.57 226.703 164.675 225.413C162.854 222.888 161.397 219.622 160.101 215.948C158.827 212.635 157.682 208.996 156.529 205.334C155.1 200.793 153.66 196.218 151.951 192.186C149.914 187.42 147.377 183.37 144.815 181.413C143.284 180.308 142.172 180.024 141.104 180.024L140.271 180.055C139.499 180.11 136.054 181.462 132.048 183.703C128.109 185.957 123.108 189.019 117.527 192.686C106.273 200.125 92.3573 209.941 78.4789 220.14C68.1396 227.71 57.7161 235.479 48.1257 242.627C31.8669 254.746 18.0023 265.079 11.001 269.634L9.43911 270.56C9.36528 270.584 9.28895 270.611 9.20842 270.639C8.70979 270.812 8.05016 271.042 6.82766 271.079L4.39524 270.56L3.28399 269.634L3 268.202C3 265.862 4.73479 261.954 6.53132 258.225C7.6715 255.816 8.88266 253.483 9.67923 251.949C10.1033 251.132 10.4098 250.541 10.5257 250.286C10.9286 249.291 11.8945 248.403 13.2596 247.149L13.4335 246.989C14.8781 245.718 16.903 244.125 19.5392 242.069C22.184 239.964 25.5604 237.413 29.6624 234.314C33.5364 231.387 38.0577 227.971 43.2213 223.98C64.4895 207.534 97.1604 181.302 144.222 139.698C169.664 117.213 186.339 105.162 197.624 100.193C201.452 98.5751 204.73 97.6059 208.193 97.6059C210.101 97.6059 212.101 98.0318 213.441 98.7048C214.953 99.4147 215.929 100.322 216.596 101.396C217.997 103.434 218.349 106.008 218.349 109.212C218.349 120.911 211.243 140.568 204.15 159.515C203.783 160.486 203.416 161.456 203.05 162.423C196.288 180.303 189.881 197.245 189.975 204.953C189.876 206.731 190.308 207.923 190.734 208.324L191.074 208.237L193.488 207.194C195.321 206.206 197.933 204.472 201.05 202.033C207.28 197.255 215.707 189.605 226.677 178.672C248.723 156.749 281.079 121.362 327.629 67.7501C358.009 32.7765 376.734 12.6998 392.162 4.35303C397.452 1.59959 402.496 0.000617364 408.053 0.000617364C410.182 0.000617364 412.306 0.25991 414.288 0.759975C416.529 1.35882 418.251 2.3466 420.27 3.74802C422.165 5.11856 424.382 6.98918 426.796 9.26725C431.451 13.8049 436.896 20.0711 443.026 27.8252Z" fill="white"/>
</svg>
