<svg width="499" height="194" viewBox="0 0 499 194" fill="none" xmlns="http://www.w3.org/2000/svg">
<path opacity="0.05" fill-rule="evenodd" clip-rule="evenodd" d="M477.882 89.1236C469.504 98.3322 459.166 105.66 446.894 111.075L498.387 193.262H438.309L376.733 87.6335H398.697C405.51 87.6335 411.462 87.2115 416.393 86.35C421.308 85.5544 425.69 83.8094 429.518 81.1193C433.061 78.7062 435.931 75.8095 438.05 72.4338C440.204 69.058 441.729 64.6405 442.723 59.1901C443.588 54.3726 443.36 50.1925 442.103 46.6936C440.819 43.1684 438.129 40.474 434.099 38.5751C431.233 37.2345 427.967 36.4433 424.231 36.0828C420.552 35.7488 415.857 35.5817 410.235 35.5817H344.395C338.966 27.3929 333.665 19.9205 328.659 13.4327C324.378 7.94271 320.659 3.61312 317.186 0H429.954C440.868 0 450.199 0.681306 458.067 2.03073C465.918 3.37576 472.893 6.14494 479.021 10.3822C485.262 14.7865 489.829 20.4128 492.779 27.2039C495.702 33.995 496.251 42.6409 494.401 53.0979C491.781 67.9152 486.295 79.871 477.882 89.1236ZM313.291 19.8111C321.906 30.8306 332.319 46.0699 343.106 63.9816C364.617 99.8403 387.738 146.468 401.632 191.364L401.685 191.496V191.61L401.192 192.353L400.718 192.669L400.093 192.841L399.329 192.973C398.964 193.018 398.577 193.038 398.124 193.062C397.915 193.073 397.693 193.085 397.452 193.1C395.944 193.21 393.786 193.267 391.39 193.267C386.265 193.267 379.641 192.973 373.584 191.773C367.527 190.625 361.8 188.507 359.312 184.788C347.585 166.564 318.372 127.488 287.674 106.161C277.485 99.0579 266.993 93.9459 257.512 92.2229C256.637 92.0514 255.736 91.9811 254.716 91.9811C248.575 91.9064 239.499 95.1371 229.363 100.478C219.297 105.792 208.08 113.11 196.77 120.851C191.675 124.342 186.572 127.919 181.538 131.447C164.196 143.602 147.67 155.186 135.096 160.718C130.327 162.718 126.173 164.019 122.116 164.094L121.066 164.019C119.483 163.949 118.305 163.413 117.36 162.758C116.477 162.147 115.747 161.408 115.11 160.49C113.813 158.692 112.776 156.367 111.853 153.751C110.946 151.392 110.131 148.801 109.31 146.194C108.292 142.961 107.267 139.704 106.051 136.833C104.6 133.44 102.794 130.556 100.97 129.163C99.8794 128.376 99.0882 128.174 98.3278 128.174L97.7344 128.196C97.185 128.235 94.7323 129.198 91.8796 130.794C89.0752 132.398 85.5149 134.578 81.5413 137.189C73.5283 142.486 63.6208 149.475 53.7396 156.736C46.3781 162.126 38.9567 167.657 32.1285 172.747C20.5526 181.374 10.6814 188.732 5.69659 191.975L4.58453 192.634C4.53196 192.651 4.4776 192.67 4.42025 192.69C4.06524 192.814 3.59559 192.977 2.72522 193.003L0.993388 192.634L0.202194 191.975L0 190.955C0 189.289 1.23514 186.507 2.51424 183.852C3.32602 182.137 4.18834 180.475 4.75549 179.383C5.05741 178.801 5.27568 178.381 5.35814 178.199C5.64501 177.491 6.33274 176.859 7.30474 175.966L7.42843 175.852C8.45698 174.947 9.89871 173.813 11.7756 172.349C13.6587 170.85 16.0627 169.034 18.9833 166.827C21.7415 164.743 24.9605 162.311 28.6368 159.47C43.7794 147.76 67.0405 129.084 100.548 99.4623C118.661 83.4538 130.534 74.8737 138.569 71.3354C141.294 70.1837 143.628 69.4936 146.094 69.4936C147.452 69.4936 148.876 69.7969 149.83 70.276C150.907 70.7815 151.602 71.4277 152.076 72.1925C153.074 73.643 153.325 75.4759 153.325 77.7572C153.325 86.0867 148.265 100.082 143.215 113.572C142.954 114.263 142.693 114.954 142.432 115.642C137.618 128.372 133.056 140.435 133.123 145.923C133.052 147.189 133.36 148.037 133.663 148.323L133.905 148.261L135.624 147.519C136.929 146.815 138.789 145.58 141.008 143.844C145.443 140.442 151.443 134.996 159.254 127.211C174.951 111.603 197.987 86.4076 231.13 48.2369C252.76 23.3363 266.092 9.04203 277.076 3.09928C280.843 1.13888 284.434 0.000439552 288.39 0.000439552C289.907 0.000439552 291.419 0.185051 292.83 0.541089C294.425 0.967454 295.651 1.67074 297.089 2.66852C298.438 3.64433 300.016 4.97617 301.735 6.59812C305.049 9.82882 308.926 14.2903 313.291 19.8111Z" fill="white"/>
</svg>
