<svg width="21" height="29" viewBox="0 0 21 29" fill="none" xmlns="http://www.w3.org/2000/svg">
<path fill-rule="evenodd" clip-rule="evenodd" d="M20.5 10.5C20.5 4.93586 16.0641 0.5 10.5 0.5C4.93586 0.5 0.5 4.93586 0.5 10.5C0.5 12.2235 1.01705 14.1439 1.95959 16.2444C2.72886 17.9588 3.76611 19.7567 5.00562 21.5983C5.96155 23.0185 6.98316 24.3846 8.00496 25.6496C8.07656 25.7383 8.14716 25.8252 8.2167 25.9103L8.81187 26.6265L9.18954 27.0671L10.5 28.5315L11.6164 27.2876L12.1881 26.6265L12.578 26.1602L12.995 25.6496C14.0168 24.3846 15.0385 23.0185 15.9944 21.5983C17.2339 19.7567 18.2711 17.9588 19.0404 16.2444C19.983 14.1439 20.5 12.2235 20.5 10.5ZM3.5 10.5C3.5 6.59271 6.59271 3.5 10.5 3.5C14.4073 3.5 17.5 6.59271 17.5 10.5C17.5 11.7364 17.0874 13.269 16.3033 15.0163C15.6117 16.5577 14.6567 18.2129 13.5056 19.9231L13.0486 20.5903L12.5823 21.2487C11.9551 22.1199 11.3081 22.9637 10.6612 23.7646L10.5 23.962L10.3388 23.7646L9.85389 23.1561C9.04674 22.1294 8.24725 21.0417 7.49438 19.9231C6.34326 18.2129 5.38833 16.5577 4.69666 15.0163C3.91264 13.269 3.5 11.7364 3.5 10.5ZM10.5 5.96429C13.0284 5.96429 15.0357 7.97157 15.0357 10.5C15.0357 13.0284 13.0284 15.0357 10.5 15.0357C7.97157 15.0357 5.96429 13.0284 5.96429 10.5C5.96429 7.97157 7.97157 5.96429 10.5 5.96429ZM8.96429 10.5C8.96429 9.62843 9.62843 8.96429 10.5 8.96429C11.3716 8.96429 12.0357 9.62843 12.0357 10.5C12.0357 11.3716 11.3716 12.0357 10.5 12.0357C9.62843 12.0357 8.96429 11.3716 8.96429 10.5Z" fill="#535559"/>
</svg>
