<svg width="21" height="20" viewBox="0 0 21 20" fill="none" xmlns="http://www.w3.org/2000/svg">
<path id="Combined Shape Copy 12" fill-rule="evenodd" clip-rule="evenodd" d="M10.6636 0.00372315L10.9385 0C16.4613 0 20.9385 4.47715 20.9385 10C20.9385 15.5228 16.4613 20 10.9385 20C5.88099 20 1.63718 16.2262 1.01589 11.2487L0.983486 10.992L0.734375 10.9928L0.858486 9.996L0.735359 9.00123L0.984486 9.001L1.01683 8.7438C1.63017 3.86016 5.73073 0.137479 10.6636 0.00372315ZM18.9385 10C18.9385 5.58172 15.3568 2 10.9385 2C6.86126 2 3.49643 5.05009 3.00124 8.99302L10.9551 8.99377L7.94198 6H10.943L14.9385 9.99283L10.943 14H7.94198L10.9551 11L3.00049 11.001C3.49301 14.9468 6.85918 18 10.9385 18C15.3568 18 18.9385 14.4183 18.9385 10Z" fill="white"/>
</svg>
