<svg aria-hidden="true" xmlns="http://www.w3.org/2000/svg" xmlns:xlink="http://www.w3.org/1999/xlink"><symbol viewBox="0 0 14 23" id="arrow-back-mobile-catalog" xmlns="http://www.w3.org/2000/svg">
<path fill-rule="evenodd" clip-rule="evenodd" d="M6.00815e-05 11.4627L11.4627 0L13.8701 2.40737L4.84246 11.435L13.8701 20.4627L11.4627 22.8701L2.43509 13.8424L2.40743 13.8701L6.00815e-05 11.4627Z"/>
</symbol><symbol viewBox="0 0 48 48" id="arrow-link" xmlns="http://www.w3.org/2000/svg">
<path fill-rule="evenodd" clip-rule="evenodd" d="M24 0C37.2548 0 48 10.7452 48 24C48 37.2548 37.2548 48 24 48C10.7452 48 0 37.2548 0 24C0 10.7452 10.7452 0 24 0ZM24 1.5C11.5736 1.5 1.5 11.5736 1.5 24C1.5 36.4264 11.5736 46.5 24 46.5C36.4264 46.5 46.5 36.4264 46.5 24C46.5 11.5736 36.4264 1.5 24 1.5ZM33.0125 23.2453H12V24.75H33.0125L26.2526 31.5H28.5034L36 23.9946L28.5034 16.5H26.2526L33.0125 23.2453Z"/>
</symbol><symbol viewBox="0 0 25 13" id="back-btn" xmlns="http://www.w3.org/2000/svg">
<path fill-rule="evenodd" clip-rule="evenodd" d="M25 5.84595H2.56076L8.35489 0H6.42568L0 6.49534L6.42568 13H8.35489L2.56076 7.15H25V5.84595Z"/>
</symbol><symbol viewBox="0 0 53 43" id="basket_empty" xmlns="http://www.w3.org/2000/svg">
<path fill-rule="evenodd" clip-rule="evenodd" d="M10.6571 0C14.8992 0 18.3387 3.4278 18.3387 7.65455C18.3387 11.8823 14.8992 15.3091 10.6571 15.3091C6.41591 15.3091 2.97642 11.8823 2.97642 7.65455C2.97742 3.4278 6.41591 0 10.6571 0ZM42.3429 0C46.5851 0 50.0215 3.4278 50.0215 7.65455C50.0215 11.8823 46.5841 15.3091 42.3429 15.3091C38.0997 15.3091 34.6622 11.8823 34.6622 7.65455C34.6622 3.4278 38.1007 0 42.3429 0ZM26.5 23.3876C15.7932 23.3876 5.96841 29.2213 0.861357 38.6087C0.0757331 40.0537 0.613529 41.8586 2.06337 42.6405C3.51422 43.4225 5.32426 42.8865 6.10788 41.4426C10.1725 33.975 17.9855 29.3343 26.5 29.3343C35.0144 29.3343 42.8275 33.975 46.8931 41.4436C47.6767 42.8875 49.4908 43.4225 50.9376 42.6395C52.3864 41.8566 52.9242 40.0507 52.1386 38.6087C47.0306 29.2203 37.2067 23.3876 26.5 23.3876Z"/>
</symbol><symbol viewBox="0 0 15 19" id="del-compare" xmlns="http://www.w3.org/2000/svg">
<path fill-rule="evenodd" clip-rule="evenodd" d="M15 3V2C15 2.12293 14.9367 2.11085 14.7488 2.07496C14.5945 2.0455 14.3562 2 14 2H10V1C10.3125 0.447715 9.89277 0 9 0H6C5.10723 0 4.6875 0.447715 5 1V2H1C0.643773 2 0.405491 2.0455 0.251211 2.07496C0.0632898 2.11085 0 2.12293 0 2V3C0 3.77614 0.209867 4 1 4H14C14.7901 4 15 3.77614 15 3ZM3 19C2.68802 19.0024 1.87624 18.2474 2 17L1 6H14L13 17C13.1423 18.2474 12.3305 19.0024 12 19H3Z"/>
</symbol><symbol viewBox="0 0 20 20" id="filters-btn" xmlns="http://www.w3.org/2000/svg">
<path fill-rule="evenodd" clip-rule="evenodd" d="M2 0H4V3.17071C5.16519 3.58254 6 4.69378 6 6C6 7.30622 5.16519 8.41746 4 8.82929V20H2V8.82929C0.834808 8.41746 0 7.30622 0 6C0 4.69378 0.834808 3.58254 2 3.17071V0ZM7 14C7 15.3062 7.83481 16.4175 9 16.8293V20H11V16.8293C12.1652 16.4175 13 15.3062 13 14C13 12.6938 12.1652 11.5825 11 11.1707V0H9V11.1707C7.83481 11.5825 7 12.6938 7 14ZM18 0H16V5.17071C14.8348 5.58254 14 6.69378 14 8C14 9.30622 14.8348 10.4175 16 10.8293V20H18V10.8293C19.1652 10.4175 20 9.30622 20 8C20 6.69378 19.1652 5.58254 18 5.17071V0ZM18 8C18 8.55228 17.5523 9 17 9C16.4477 9 16 8.55228 16 8C16 7.44772 16.4477 7 17 7C17.5523 7 18 7.44772 18 8ZM10 15C10.5523 15 11 14.5523 11 14C11 13.4477 10.5523 13 10 13C9.44772 13 9 13.4477 9 14C9 14.5523 9.44772 15 10 15ZM4 6C4 6.55228 3.55228 7 3 7C2.44772 7 2 6.55228 2 6C2 5.44772 2.44772 5 3 5C3.55228 5 4 5.44772 4 6Z"/>
</symbol><symbol viewBox="0 0 24 16" id="icon_arrow" xmlns="http://www.w3.org/2000/svg">
<path fill-rule="evenodd" clip-rule="evenodd" d="M0 7.24533H21.0125L14.2526 0.5H16.5034L24 7.99462L16.5034 15.5H14.2526L21.0125 8.75H0V7.24533Z"/>
</symbol><symbol viewBox="0 0 30 24" id="icon_basket" xmlns="http://www.w3.org/2000/svg">
<path id="ah&#xD0;&#xBA;&#xD0;&#xBE;&#xD1;&#x80;&#xD0;&#xB7;&#xD0;&#xB8;&#xD0;&#xBD;&#xD0;&#xB0; copy" fill-rule="evenodd" clip-rule="evenodd" d="M0 2.52632H6.02929L10.3958 16H26.464L30 4.52522H9.30518L7.83865 0H0V2.52632ZM24.6267 13.4737H12.2052L10.1239 7.05154H26.6057L24.6267 13.4737ZM17.4812 21.0526C17.4812 22.6804 16.1767 24 14.5676 24C12.9585 24 11.6541 22.6804 11.6541 21.0526C11.6541 19.4248 12.9585 18.1053 14.5676 18.1053C16.1767 18.1053 17.4812 19.4248 17.4812 21.0526ZM23.7244 24C25.3335 24 26.638 22.6804 26.638 21.0526C26.638 19.4248 25.3335 18.1053 23.7244 18.1053C22.1153 18.1053 20.8109 19.4248 20.8109 21.0526C20.8109 22.6804 22.1153 24 23.7244 24Z"/>
</symbol><symbol viewBox="0 0 34 26" id="icon_burger" xmlns="http://www.w3.org/2000/svg">
<path fill-rule="evenodd" clip-rule="evenodd" d="M0 2L34 0V4L0 6V2ZM0 12L29 10V14L0 16V12ZM34 20L0 22V26L34 24V20Z"/>
</symbol><symbol viewBox="0 0 24 24" id="icon_cabinet" xmlns="http://www.w3.org/2000/svg">
<path fill-rule="evenodd" clip-rule="evenodd" d="M24 21.0964C24 19.1673 22.6869 17.4859 20.8158 17.0185L16.2181 15.8695L16.2243 15.2833C16.2296 14.7569 16.4483 14.2325 16.8468 13.7958C18.1591 12.3574 18.7991 10.9712 19.0069 9.35909C19.085 8.75304 19.0997 8.29281 19.0997 7.25245C19.0997 3.27444 15.9693 0.0724969 12.0236 0C8.03086 0.0724936 4.90032 3.27426 4.90032 7.25147C4.90032 8.29184 4.91499 8.75207 4.99311 9.35811C5.20091 10.9702 5.84088 12.3564 7.15313 13.7947C7.55171 14.2315 7.77044 14.7559 7.77571 15.2817L7.78189 15.8685L3.18407 17.0175C1.31261 17.4864 0 19.1677 0 21.0964V22.7143C0 23.4244 0.575634 24 1.28571 24H22.7143C23.4244 24 24 23.4244 24 22.7143V21.0964ZM20.2696 19.5839C21.0027 19.7671 21.5172 20.426 21.5172 21.182V21.5172H2.48276V21.182C2.48276 20.4259 2.99753 19.7666 3.73123 19.5828L8.61295 18.3628C9.63691 18.1074 10.3517 17.1815 10.3403 16.1262L10.3315 15.286C10.3195 14.0978 9.84557 12.9616 9.02493 12.0623C8.06062 11.0054 7.64328 10.1014 7.50153 9.00171C7.44163 8.53702 7.42917 8.14605 7.42917 7.20713C7.42917 4.60514 9.45829 2.5299 12.0238 2.48276C14.5418 2.5299 16.5708 4.60526 16.5708 7.20812C16.5708 8.14704 16.5584 8.538 16.4985 9.00269C16.3567 10.1024 15.9394 11.0064 14.975 12.0633C14.1544 12.9626 13.6805 14.0988 13.6685 15.2876L13.6597 16.1276C13.6483 17.1833 14.3629 18.1084 15.3876 18.364L20.2696 19.5839Z"/>
</symbol><symbol viewBox="0 0 20 20" id="icon_change" xmlns="http://www.w3.org/2000/svg">
<path fill-rule="evenodd" clip-rule="evenodd" d="M18.1463 0.225379L19.776 2.05392C20.0747 2.35443 20.0747 2.84617 19.776 3.14667L18.1741 4.75847L15.4583 1.83718L17.0602 0.225379C17.3589 -0.0751264 17.8476 -0.0751264 18.1463 0.225379ZM1.92028 18.1133H16.0797V9.39444L18 7.36224V18.3858C18 19.2872 17.2614 20 16.354 20H1.64596C0.73857 20 0 19.2872 0 18.3858V4.34044C0 3.45999 0.73857 2.72627 1.64596 2.72627H12.1125L10.1923 4.63393H1.92028V18.1133ZM14.5841 2.72627L9.14005 8.45087L11.9379 11.3856L17.382 5.66096L14.5841 2.72627ZM6.97303 10.6667C6.86444 10.767 6.81015 10.8673 6.75585 11.0178L6.02288 14.0526C5.88715 14.5543 6.3758 15.0057 6.94588 14.9054L9.72409 13.7251C9.85982 13.7 9.99556 13.6248 10.1041 13.5245L11 12.6968L7.86889 9.83898L6.97303 10.6667Z"/>
</symbol><symbol viewBox="0 0 27 27" id="icon_close-modal" xmlns="http://www.w3.org/2000/svg">
	<path fill-rule="evenodd" clip-rule="evenodd" d="M15.9099 13.0815L26.163 23.3345L23.3345 26.163L13.0815 15.9099L2.82843 26.163L0 23.3345L10.253 13.0815L0 2.82843L2.82843 0L13.0815 10.253L23.3345 0L26.163 2.82843L15.9099 13.0815Z"/>
</symbol><symbol viewBox="0 0 27 27" id="icon_close-modal-white" xmlns="http://www.w3.org/2000/svg">
	<path fill-rule="evenodd" clip-rule="evenodd" d="M15.9099 13.0815L26.163 23.3345L23.3345 26.163L13.0815 15.9099L2.82843 26.163L0 23.3345L10.253 13.0815L0 2.82843L2.82843 0L13.0815 10.253L23.3345 0L26.163 2.82843L15.9099 13.0815Z"/>
</symbol><symbol viewBox="0 0 14 7" id="icon_dropdown" xmlns="http://www.w3.org/2000/svg">
<path opacity="0.497001" fill-rule="evenodd" clip-rule="evenodd" d="M12 0L7 5L2 0H0L7 7L14 0H12Z"/>
</symbol><symbol viewBox="0 0 12 19" id="icon_enter" xmlns="http://www.w3.org/2000/svg">
<path d="M5 16C6.06922 16.5062 6.25623 17.8468 6 18C5.56139 18.0418 5.18811 17.9474 5 18L0 13L5 8L5.3263 7.99585C5.59279 7.99447 5.91058 7.99585 6 8C6.66518 8.78971 6.13613 9.43494 5 10L3 12H10V1C9.99608 0.579773 10.4447 0.133077 11 0C11.5514 0.133077 12 0.579773 12 1V13C12 14.0423 10.9664 14.0423 11 14H3L5 16Z"/>
</symbol><symbol viewBox="0 0 26 24" id="icon_favorites" xmlns="http://www.w3.org/2000/svg">
<path fill-rule="evenodd" clip-rule="evenodd" d="M4.99257 24L13 19.9053L21.0074 24L19.477 15.321L26 9.13647L16.9896 7.86297L13 0L9.01036 7.86297L0 9.13647L6.52295 15.321L4.99257 24ZM17.8138 19.6738L13 17.2122L8.18618 19.6738L9.10443 14.4663L5.25477 10.8164L10.579 10.0638L13 5.29244L15.421 10.0638L20.7452 10.8164L16.8956 14.4663L17.8138 19.6738Z"/>
</symbol><symbol viewBox="0 0 30 25" id="icon_mail" xmlns="http://www.w3.org/2000/svg">
<path fill-rule="evenodd" clip-rule="evenodd" d="M6.81764 0L7.27132 0.45332L7.725 0H11.9676L12.4213 0.45332L12.875 0H17.1176L17.5713 0.45332L18.025 0H22.2676L22.7213 0.45332L23.175 0H27.4176L29.9926 2.575V6.81764L29.5393 7.27132L29.9926 7.725V11.9676L29.5393 12.4213L29.9926 12.875V17.1176L29.5393 17.5713L29.9926 18.025V22.2676L27.4176 24.8426H23.175L22.7213 24.3893L22.2676 24.8426H18.025L17.5713 24.3893L17.1176 24.8426H12.875L12.4213 24.3893L11.9676 24.8426H7.725L7.27132 24.3893L6.81764 24.8426H2.575L0 22.2676V18.025L0.45332 17.5713L0 17.1176V12.875L0.45332 12.4213L0 11.9676V7.725L0.45332 7.27132L0 6.81764V2.575L2.575 0H6.81764ZM2.12132 4.69632L4.69632 7.27132L2.12132 9.84632L4.69632 12.4213L2.12132 14.9963L4.69632 17.5713L2.12132 20.1463L4.69632 22.7213L7.27132 20.1463L9.84632 22.7213L12.4213 20.1463L14.9963 22.7213L17.5713 20.1463L20.1463 22.7213L22.7213 20.1463L25.2963 22.7213L27.8713 20.1463L25.2963 17.5713L27.8713 14.9963L25.2963 12.4213L27.8713 9.84632L25.2963 7.27132L27.8713 4.69632L25.2963 2.12132L22.7213 4.69632L20.1463 2.12132L17.5713 4.69632L14.9963 2.12132L12.4213 4.69632L9.84632 2.12132L7.27132 4.69632L4.69632 2.12132L2.12132 4.69632ZM7.27132 9.84632L14.9963 16.2838L22.7213 9.84632V7.27132L14.9963 12.4213L7.27132 7.27132V9.84632Z"/>
</symbol><symbol viewBox="0 0 23 15" id="icon_pagging-left" xmlns="http://www.w3.org/2000/svg">
<path fill-rule="evenodd" clip-rule="evenodd" d="M22.4375 6.79564L2.82588 6.79564L9.13504 0.5L7.03435 0.5L0.0375004 7.49498L7.03435 14.5H9.13504L2.82588 8.2L22.4375 8.2V6.79564Z"/>
</symbol><symbol viewBox="0 0 23 15" id="icon_pagging-right" xmlns="http://www.w3.org/2000/svg">
<path fill-rule="evenodd" clip-rule="evenodd" d="M0.291504 6.79564L19.9031 6.79564L13.594 0.5L15.6947 0.5L22.6915 7.49498L15.6947 14.5H13.594L19.9031 8.2L0.291504 8.2L0.291504 6.79564Z"/>
</symbol><symbol viewBox="0 0 27 27" id="icon_phone" xmlns="http://www.w3.org/2000/svg">
<path fill-rule="evenodd" clip-rule="evenodd" d="M2.7679 2.44095L3.39617 1.80309C4.5767 0.636984 6.26988 0.205632 7.82591 0.70474C10.1565 1.45781 11.7708 3.07541 12.5196 5.40498C13.0245 6.94939 12.5851 8.65822 11.4068 9.83657L10.3522 10.8911C10.2664 10.977 10.2516 11.1196 10.2887 11.1729C11.6894 13.1656 13.3866 14.8584 15.3596 16.2218C15.4237 16.2676 15.5474 16.2555 15.6321 16.1708L16.6866 15.1163C17.8699 13.9331 19.5723 13.4994 21.1161 14.0093C23.4487 14.7507 25.0667 16.3688 25.8152 18.6976C26.3363 20.2756 25.8559 21.9909 24.5979 23.2488L24.0943 23.7428C22.6082 25.2406 20.5914 26.0749 18.5046 26.0749C17.7727 26.0749 17.0354 25.967 16.3159 25.7547C12.7107 24.6903 10.4455 23.2867 6.84105 19.6823C3.23644 16.0777 1.83278 13.8124 0.767538 10.2042C-0.0392509 7.45166 0.731364 4.47743 2.7679 2.44095ZM9.66585 6.33011C9.2101 4.91227 8.31518 4.01557 6.90655 3.5604C6.43456 3.409 5.902 3.54468 5.50442 3.9374L4.8974 4.55403C3.62552 5.82591 3.14924 7.66415 3.64559 9.3576C3.67616 9.46112 3.70696 9.56322 3.73808 9.66401L3.92915 10.2538C4.81109 12.8443 6.02582 14.6245 8.96237 17.561L9.28397 17.8802C12.0317 20.5869 13.7747 21.7447 16.269 22.5939L16.8588 22.7849L17.1651 22.8774C17.6106 23.0088 18.062 23.0749 18.5046 23.0749C19.7943 23.0749 21.0438 22.558 21.9789 21.6158L22.4866 21.1176C22.9636 20.6406 23.1168 20.0935 22.9629 19.627C22.5071 18.209 21.6133 17.3152 20.1914 16.8631C19.7261 16.7095 19.2028 16.8428 18.808 17.2376L17.7534 18.2921C16.6447 19.4009 14.8888 19.5722 13.6351 18.6765C11.3874 17.1235 9.43727 15.1785 7.83013 12.892C6.94907 11.6255 7.13047 9.87024 8.23091 8.7698L9.28546 7.71525C9.67824 7.32247 9.81561 6.78825 9.66585 6.33011Z"/>
</symbol><symbol viewBox="0 0 17 18" id="icon_reset" xmlns="http://www.w3.org/2000/svg">
<g clip-path="url(#auclip0_109_1659)">
<path fill-rule="evenodd" clip-rule="evenodd" d="M11.0006 1C14.4508 1.88831 17 5.02035 17 8.7478C17 11.7271 15.3713 14.3261 12.9558 15.7029L15 17.7478H9V11.7478L10.7034 13.4501C12.6262 12.7535 14 10.9111 14 8.7478C14 6.69799 12.7665 4.93628 11.0013 4.16442L11.0006 1ZM5.99935 16.7478C2.54923 15.8595 0 12.7274 0 9C0 6.02065 1.62865 3.4217 4.04422 2.04486L2 0H8V6L6.29661 4.29765C4.37383 4.9943 3 6.83671 3 9C3 11.0498 4.23348 12.8115 5.99868 13.5834L5.99935 16.7478Z"/>
</g>
<defs>
<clipPath id="auclip0_109_1659">
<rect width="17" height="17.7478"/>
</clipPath>
</defs>
</symbol><symbol viewBox="0 0 39 37" id="icon_search" xmlns="http://www.w3.org/2000/svg">
<path fill-rule="evenodd" clip-rule="evenodd" d="M26.4534 28.0835C23.6491 30.5119 19.9914 31.9812 15.9906 31.9812C7.15923 31.9812 0 24.822 0 15.9906C0 7.15923 7.15923 0 15.9906 0C24.822 0 31.9812 7.15923 31.9812 15.9906C31.9812 19.246 31.0084 22.2741 29.3377 24.8003L38.4497 33.9123L35.366 36.9961L26.4534 28.0835ZM27.6201 15.9906C27.6201 22.4134 22.4134 27.6201 15.9906 27.6201C9.56779 27.6201 4.36107 22.4134 4.36107 15.9906C4.36107 9.56779 9.56779 4.36107 15.9906 4.36107C22.4134 4.36107 27.6201 9.56779 27.6201 15.9906Z"/>
</symbol><symbol viewBox="0 0 26 26" id="icon_share" xmlns="http://www.w3.org/2000/svg">
<path fill-rule="evenodd" clip-rule="evenodd" d="M16.6397 17.6801C17.6799 16.3801 19.1099 15.6 20.7998 15.6H20.8001C23.6602 15.6 26.0001 17.9399 26.0001 20.8C26.0001 23.6601 23.6602 26 20.8001 26C17.94 26 15.6001 23.6601 15.6001 20.8C15.6001 20.67 15.6326 20.54 15.6651 20.41C15.6976 20.28 15.7301 20.15 15.7301 20.02L9.3601 17.42C8.31996 18.72 6.88991 19.5 5.2 19.5C2.33991 19.5 0 17.1601 0 14.3C0 11.4399 2.33991 9.1 5.2 9.1C6.63 9.1 7.93 9.75 8.83991 10.6601L15.8599 6.63005C15.8376 6.54102 15.8154 6.45581 15.7938 6.37309L15.7937 6.3729L15.7937 6.37281C15.6891 5.97254 15.5998 5.63083 15.5998 5.2C15.5998 2.33991 17.9397 0 20.7998 0C23.6599 0 25.9998 2.33991 25.9998 5.2C25.9998 8.0601 23.6599 10.4 20.7998 10.4C19.3698 10.4 18.0698 9.75 17.0297 8.83991L10.1397 12.87C10.162 12.9591 10.1843 13.0444 10.2059 13.1272L10.2059 13.1272C10.3105 13.5275 10.3998 13.8692 10.3998 14.3C10.3998 14.5601 10.3998 14.82 10.2697 15.0801L16.6397 17.6801ZM23.3998 5.2C23.3998 3.76995 22.2299 2.6 20.7998 2.6C19.3698 2.6 18.1998 3.76995 18.1998 5.2C18.1998 6.63005 19.3698 7.8 20.7998 7.8C22.2299 7.8 23.3998 6.63005 23.3998 5.2ZM5.19983 16.9C3.76978 16.9 2.59982 15.7301 2.59982 14.3C2.59982 12.87 3.76978 11.7 5.19983 11.7C6.62987 11.7 7.79983 12.87 7.79983 14.3C7.79983 15.7301 6.62987 16.9 5.19983 16.9ZM18.1998 20.8C18.1998 22.2301 19.3698 23.4 20.7998 23.4C22.2299 23.4 23.3998 22.2301 23.3998 20.8C23.3998 19.37 22.2299 18.2 20.7998 18.2C19.3698 18.2 18.1998 19.37 18.1998 20.8Z"/>
</symbol><symbol viewBox="0 0 38 20" id="icon_slider-down" xmlns="http://www.w3.org/2000/svg">
<path fill-rule="evenodd" clip-rule="evenodd" d="M37.0788 2.59808L18.5917 19.03L18.565 19.0981L18.5397 19.075L18.5138 19.0981L18.489 19.03L0 2.59808L0.974411 0L18.5397 15.611L36.1044 0L37.0788 2.59808Z"/>
</symbol><symbol viewBox="0 0 21 58" id="icon_slider-left" xmlns="http://www.w3.org/2000/svg">
<path fill-rule="evenodd" clip-rule="evenodd" d="M17.4508 0.460938L20.0488 1.96094L4.43761 29.0004L20.0488 56.0398L17.4508 57.5398L1.01903 29.0792L0.950752 29.0398L0.973511 29.0004L0.950752 28.9609L1.01903 28.9215L17.4508 0.460938Z"/>
</symbol><symbol viewBox="0 0 21 58" id="icon_slider-right" xmlns="http://www.w3.org/2000/svg">
<path fill-rule="evenodd" clip-rule="evenodd" d="M3.54925 0.460938L0.951172 1.96094L16.5624 29.0004L0.951172 56.0398L3.54925 57.5398L19.981 29.0792L20.0492 29.0398L20.0265 29.0004L20.0492 28.9609L19.981 28.9215L3.54925 0.460938Z"/>
</symbol><symbol viewBox="0 0 38 20" id="icon_slider-up" xmlns="http://www.w3.org/2000/svg">
<path fill-rule="evenodd" clip-rule="evenodd" d="M37.0788 16.5035L18.5917 0.0715618L18.565 0.00348663L18.5397 0.0265617L18.5138 0.00348663L18.489 0.0715618L0 16.5035L0.974411 19.1016L18.5397 3.49056L36.1044 19.1016L37.0788 16.5035Z"/>
</symbol><symbol viewBox="0 0 31 31" id="icon_spoller" xmlns="http://www.w3.org/2000/svg">
<path fill-rule="evenodd" clip-rule="evenodd" d="M17 0H14V14H0V17H14V31H17V17H31V14H17V0Z"/>
</symbol><symbol viewBox="0 0 32 28" id="icon_telegram" xmlns="http://www.w3.org/2000/svg">
<path fill-rule="evenodd" clip-rule="evenodd" d="M26.255 1.32772C29.6306 -0.0551109 32.6366 2.85124 31.8701 6.45978L31.8483 6.55413L28.0794 24.3417C27.4076 27.5698 24.4457 28.9076 21.6078 27.3396L21.4374 27.2379L21.2742 27.1253L17.5788 24.3911L16.446 25.4943C15.6149 26.274 14.675 26.7283 13.4026 26.7283C12.5671 26.7283 11.8453 26.5745 11.1158 26.0397C10.6825 25.7221 10.3571 25.328 10.1231 24.8888C10.0189 24.6931 9.94512 24.5173 9.88128 24.331L9.78934 24.0351L9.71239 23.7739L9.67514 23.6654L8.0408 18.6481L4.01139 17.389C-0.115702 16.1227 0.171618 11.7712 3.69594 10.0667L3.88783 9.97792L4.08588 9.89443L26.1958 1.35408L26.255 1.32772ZM27.9442 4.00006C27.7839 3.99592 27.6141 4.02397 27.4417 4.08579L27.3119 4.13852L5.16689 12.6929L5.01076 12.7588C3.70776 13.3377 3.70642 14.0991 4.76461 14.4789L4.8914 14.521L10.4144 16.2475L12.5277 22.7364L12.5717 22.8646L12.6945 23.2811C12.7905 23.5951 12.8907 23.7283 13.4026 23.7283C13.8623 23.7283 14.1174 23.5603 14.365 23.3328L17.3136 20.4626L23.0586 24.7137L23.1948 24.7849C23.4639 24.9171 23.7123 24.9888 23.9364 24.9985L24.0464 24.9982L24.1523 24.9876C24.5993 24.9194 24.9281 24.5619 25.1021 23.9017L25.1424 23.7304L28.9135 5.93228L28.9497 5.76943C29.1572 4.70558 28.6938 4.07968 28.0432 4.00683L27.9442 4.00006ZM23.7302 7.98475L11.2812 15.8508L13.379 22.2919L13.7941 17.8584L24.4536 8.22615C24.9215 7.81022 24.3516 7.60728 23.7302 7.98475Z"/>
</symbol><symbol viewBox="0 0 17 17" id="icon_triangle" xmlns="http://www.w3.org/2000/svg">
<path d="M14.9751 7.60558C15.7121 7.9741 15.7121 9.0259 14.9751 9.39443L2.44721 15.6584C1.78231 15.9908 1 15.5073 1 14.7639L1 2.23607C1 1.49269 1.78231 1.00919 2.44721 1.34164L14.9751 7.60558Z" stroke-width="2"/>
</symbol><symbol viewBox="0 0 37 24" id="icon_vk" xmlns="http://www.w3.org/2000/svg">
<path fill-rule="evenodd" clip-rule="evenodd" d="M15.3924 0L15.5924 0.00351104L15.724 0.00957914L19.4045 0.00909591C21.4263 0.00909591 23.1296 1.29838 23.7869 3.08916L23.804 3.14058L23.9801 2.81842C24.7175 1.56959 26.0587 0.787701 27.525 0.787711H32.5091C35.7641 0.787711 37.236 3.42334 36.4283 6.12855C36.0975 7.23663 35.4557 8.33334 34.6301 9.46245L32.088 12.9116L33.5488 14.4819L34.481 15.4742L35.2081 16.2324C38.0182 19.27 36.8681 23.9172 31.9463 23.9172H27.4736C26.2734 23.9172 25.123 23.4488 24.2599 22.615L23.499 21.8806L23.4173 22.0162C22.7207 23.1021 21.5342 23.8439 20.1603 23.9121L19.9528 23.9172H17.1072C12.8294 23.9172 9.05612 20.9457 5.60883 16.0723C3.31216 12.8255 1.24072 8.73339 0.226507 5.87316C-0.187948 4.72558 -0.027993 3.44548 0.660022 2.4357C1.3649 1.40117 2.53745 0.778982 3.77472 0.787711L8.29864 0.787714C9.34363 0.786151 10.3202 1.18834 11.0542 1.87182L11.081 1.89758L11.1964 1.77696C12.2439 0.717736 13.647 0.0829962 15.1356 0.00803052L15.3924 0ZM19.4045 3.0091H15.6571L15.463 3.00072C14.4956 2.99114 13.5777 3.46265 13.0048 4.27435L13.1227 4.26393L13.2861 4.26515L13.4231 4.27816C13.9834 4.35374 14.9077 4.75681 14.9077 6.59396L14.9089 6.85518L14.9703 10.7051C14.9818 11.1811 14.7033 11.614 14.2727 11.7894C13.8421 11.9647 13.3508 11.8454 13.0421 11.4904C11.5082 9.29716 10.2376 6.92148 9.25802 4.41496C9.08622 4.03208 8.71327 3.7871 8.30313 3.78771H3.77472L3.66752 3.79466C3.45589 3.82373 3.26359 3.94241 3.13925 4.12491C2.99418 4.33782 2.96012 4.61042 3.04813 4.85412C3.0675 4.90873 3.08776 4.96499 3.10893 5.02285L3.24651 5.3886L3.405 5.78978L3.58391 6.22364L3.78272 6.68744L4.00095 7.17842L4.3636 7.95986L4.62819 8.50678L4.91045 9.07127L5.20989 9.65058L5.526 10.242L5.85829 10.8427C5.91499 10.9434 5.97235 11.0444 6.03035 11.1456L6.38598 11.7552L6.75654 12.3671L7.14154 12.9788C9.75525 17.0496 13.2983 20.9172 17.1072 20.9172H19.9528L20.0753 20.9105C20.6386 20.8477 21.077 20.3572 21.077 19.7615V17.995L21.0847 17.8606C21.1308 17.4624 21.3792 17.1145 21.7431 16.9526C22.1474 16.7728 22.617 16.8572 22.9381 17.1673L26.3441 20.4573L26.4632 20.5619C26.7512 20.7913 27.1064 20.9172 27.4736 20.9172H31.9463L32.1311 20.9133C34.1025 20.827 34.0689 19.3433 32.9274 18.1875L32.8354 18.0937L31.8727 17.0809L29.2078 14.2157L29.0135 13.9963C28.5799 13.4344 28.5646 12.6335 28.9941 12.0519L32.081 7.8657L32.4092 7.4107L32.5504 7.20465L32.7662 6.87375L32.9085 6.64214L33.0464 6.4046L33.177 6.16356C33.198 6.12323 33.2186 6.08286 33.2387 6.04249L33.3531 5.8008C33.389 5.72053 33.4225 5.6407 33.4531 5.56172L33.536 5.32771C33.805 4.48195 33.6712 3.78771 32.5091 3.78771H27.525L27.3883 3.79626C27.0281 3.84151 26.7078 4.06371 26.5336 4.39746L25.086 7.15131L23.8006 9.63621C22.4608 12.1895 21.5071 11.9864 21.191 10.9959L21.1464 10.8333L21.1126 10.6592C21.0891 10.51 21.077 10.3507 21.077 10.1858V4.72854L21.0709 4.58018C20.9977 3.70002 20.2796 3.0091 19.4045 3.0091Z"/>
</symbol><symbol viewBox="0 0 16 16" id="input_clear" xmlns="http://www.w3.org/2000/svg">
<path fill-rule="evenodd" clip-rule="evenodd" d="M8 0C3.6 0 0 3.6 0 8C0 12.4 3.6 16 8 16C12.4 16 16 12.4 16 8C16 3.6 12.4 0 8 0ZM12 11.0494L10.88 12.2353L8 9.18588L5.12 12.2353L4 11.0494L6.88 8L4 4.95059L5.12 3.76471L8 6.81412L10.88 3.76471L12 4.95059L9.12 8L12 11.0494Z"/>
</symbol><symbol viewBox="0 0 212 32" id="logo_header" xmlns="http://www.w3.org/2000/svg">
<path fill-rule="evenodd" clip-rule="evenodd" d="M181.095 8.04798C179.792 8.04798 178.54 8.3115 177.378 8.8696C176.195 9.41263 174.953 10.1826 173.662 11.1484L175.58 0C175.58 0 168.768 2.17704 168.422 3.9236C165.999 16.0554 163.269 31.1643 163.269 31.1643H170.214L172.957 15.2288C173.714 14.7452 174.38 14.422 174.988 14.1874C175.619 13.9737 176.218 13.8912 176.79 13.8912C177.54 13.8912 178.113 13.9835 178.53 14.2003C178.937 14.4281 179.219 14.7793 179.381 15.3033C179.504 15.7301 179.526 16.3869 179.442 17.2958C179.355 18.1888 179.248 19.0989 179.087 20.0094L177.165 31.1643H184.139L186.665 16.5243C187.131 13.7732 186.898 11.6659 185.947 10.2167C184.993 8.78074 183.353 8.04798 181.095 8.04798ZM18.2533 12.5133C18.5608 11.9958 18.7936 11.3131 18.9553 10.4722C19.0749 9.72833 19.0424 9.06692 18.8419 8.54111C18.6574 7.99931 18.2629 7.57897 17.6516 7.28931C17.2214 7.08882 16.7171 6.96583 16.167 6.90433C15.6107 6.84775 14.8891 6.82346 14.0416 6.82346H11.5737L10.1989 14.8616H12.3144C13.3335 14.8616 14.22 14.8001 14.9832 14.6706C15.7304 14.5446 16.3675 14.2632 16.9529 13.8638C17.4898 13.4837 17.9394 13.0406 18.2533 12.5133ZM26.7278 9.53738C26.3333 11.8048 25.5052 13.6778 24.2439 15.0815C22.9724 16.5098 21.4266 17.645 19.5731 18.4943L27.3296 31.1642H18.2761L11.9328 20.2279H9.27395L7.38811 31.1642H0L5.13358 1.33596H17.024C18.6574 1.33596 20.0712 1.44112 21.252 1.63976C22.4389 1.83902 23.4902 2.28703 24.4121 2.94199C25.3533 3.62308 26.0359 4.47853 26.479 5.53937C26.9221 6.57285 26.9836 7.9086 26.7278 9.53738ZM44.4153 23.3234C44.7708 22.5101 45.065 21.3924 45.3113 19.9693C45.5343 18.6477 45.6219 17.5204 45.557 16.6324C45.4986 15.7431 45.3113 15.0347 45.0134 14.5042C44.7096 13.9381 44.3114 13.5467 43.8363 13.3189C43.3542 13.1055 42.7785 12.9984 42.1251 12.9984C41.4975 12.9984 40.9219 13.0907 40.3878 13.2816C39.8478 13.4837 39.3208 13.8637 38.8094 14.4009C38.2984 14.923 37.8743 15.6284 37.4894 16.5355C37.0949 17.4463 36.7815 18.588 36.5417 19.9693C36.2929 21.3392 36.225 22.4566 36.3028 23.3105C36.3833 24.153 36.5518 24.8372 36.8332 25.3581C37.0949 25.8578 37.4995 26.2397 38.0167 26.4807C38.5216 26.728 39.1231 26.851 39.7897 26.851C40.3555 26.851 40.9379 26.728 41.5621 26.4807C42.1771 26.2397 42.6977 25.887 43.1343 25.3904C43.6358 24.8212 44.0657 24.1306 44.4153 23.3234ZM33.9443 11.1384C36.351 9.01827 39.3494 7.97342 42.9726 7.97342C46.6373 7.97342 49.2703 9.03119 50.9295 11.1627C52.5823 13.2995 53.0678 16.2188 52.4242 19.9253C51.7933 23.6358 50.3087 26.5499 47.9281 28.6722C45.557 30.8102 42.5325 31.876 38.8774 31.876C35.2385 31.876 32.5956 30.8102 30.9426 28.6722C29.2996 26.5499 28.7917 23.6358 29.4226 19.9253C30.0791 16.1976 31.5769 13.2589 33.9443 11.1384ZM67.1838 8.04798C65.5375 8.04798 64.0462 8.23063 62.6551 8.65282C61.2871 9.04733 60.1063 9.59098 59.1005 10.2653C58.0913 10.9609 57.2758 11.7548 56.6777 12.6364C56.0729 13.5306 55.6621 14.485 55.4939 15.4908C55.2027 17.2309 55.3903 18.6478 56.0954 19.7105C56.7848 20.8006 57.9652 21.6059 59.6115 22.1508C60.1905 22.3516 60.8793 22.5312 61.6686 22.6895C62.4451 22.8399 63.0856 22.9776 63.6 23.1086C64.5508 23.3574 65.1753 23.6129 65.4662 23.8752C65.7607 24.1436 65.8736 24.5302 65.7866 25.0587C65.6636 25.7285 65.1944 26.2103 64.4118 26.5258C63.6129 26.8299 62.7006 26.9916 61.7366 26.9916C60.7988 26.9916 59.919 26.8782 59.1395 26.6519C58.3696 26.424 57.6836 26.17 57.0981 25.8579C56.393 25.528 55.8561 25.2174 55.4939 24.9022C55.3757 24.8015 55.2618 24.7055 55.152 24.6131C54.9161 24.4143 54.6995 24.2317 54.5007 24.0529H53.9349L52.8996 29.9934C53.7861 30.4737 54.921 30.8876 56.3186 31.2402C57.7066 31.6059 59.2333 31.7953 60.8667 31.7953C62.6551 31.7953 64.2467 31.5994 65.6052 31.2061C66.9704 30.8264 68.1607 30.2683 69.2477 29.5663C70.26 28.9098 71.0979 28.098 71.7513 27.1534C72.4013 26.1974 72.8186 25.1977 72.9936 24.1436C73.2906 22.4614 73.1163 21.1238 72.4564 20.1213C71.803 19.1072 70.7064 18.3407 69.2056 17.841C68.5328 17.5836 67.8274 17.3911 67.0707 17.2488C66.3302 17.1128 65.6636 16.9754 65.1009 16.8269C63.9945 16.5357 63.299 16.2608 63.0047 15.9597C62.7006 15.6606 62.6034 15.2759 62.6911 14.7581C62.7975 14.1791 63.2215 13.7246 63.9653 13.3753C64.735 13.0309 65.6052 12.8513 66.6113 12.8513C67.3649 12.8513 68.0894 12.9386 68.7788 13.1053C69.4676 13.2818 70.0822 13.5112 70.6093 13.7895C71.0656 14.001 71.5084 14.2762 71.9875 14.5963C72.4564 14.8958 72.7863 15.148 72.9936 15.3389H73.5332L74.52 9.64571C73.6986 9.21061 72.6535 8.83239 71.4149 8.51691C70.1437 8.19835 68.7397 8.04798 67.1838 8.04798ZM90.3991 23.3234C90.7708 22.5101 91.0651 21.3924 91.3111 19.9693C91.5245 18.6477 91.6217 17.5204 91.5571 16.6324C91.4922 15.7431 91.3111 15.0347 91.0135 14.5042C90.706 13.9381 90.3084 13.5467 89.8361 13.3189C89.3379 13.1055 88.7752 12.9984 88.1184 12.9984C87.5007 12.9984 86.922 13.0907 86.3878 13.2816C85.8476 13.4837 85.3236 13.8637 84.803 14.4009C84.3111 14.923 83.868 15.6284 83.4833 16.5355C83.0918 17.4463 82.7714 18.588 82.5353 19.9693C82.293 21.3392 82.2186 22.4566 82.309 23.3105C82.3769 24.153 82.555 24.8372 82.8265 25.3581C83.1081 25.8578 83.4833 26.2397 84.014 26.4807C84.5312 26.728 85.1102 26.851 85.7735 26.851C86.3491 26.851 86.9444 26.728 87.5557 26.4807C88.1768 26.2397 88.7039 25.887 89.1181 25.3904C89.6387 24.8212 90.0658 24.1306 90.3991 23.3234ZM79.9576 11.1384C82.3446 9.01827 85.343 7.97342 88.9852 7.97342C92.6404 7.97342 95.2867 9.03119 96.9201 11.1627C98.5796 13.2995 99.071 16.2188 98.4338 19.9253C97.7869 23.6358 96.2992 26.5499 93.9309 28.6722C91.5571 30.8102 88.5357 31.876 84.8774 31.876C81.2417 31.876 78.5926 30.8102 76.9399 28.6722C75.2929 26.5499 74.7886 23.6358 75.419 19.9253C76.0724 16.1976 77.5702 13.2589 79.9576 11.1384ZM135.574 10.0518C135.118 9.38361 134.517 8.87932 133.747 8.54753C132.974 8.21145 132.081 8.04786 131.046 8.04786C129.829 8.04786 128.574 8.3778 127.27 9.06012C125.98 9.73476 124.557 10.6938 123.004 11.9539C122.687 10.6456 122.066 9.68648 121.148 9.0183C120.213 8.3778 119.08 8.04786 117.712 8.04786C116.457 8.04786 115.283 8.31169 114.18 8.86948C113.074 9.41282 111.883 10.1828 110.58 11.1483L111.013 8.66899H104.049L100.19 31.1642H107.141L109.881 15.2287C110.457 14.8619 111.052 14.5445 111.624 14.2761C112.22 14.0012 112.793 13.8911 113.355 13.8911C114.115 13.8911 114.665 13.9834 115.047 14.2002C115.428 14.428 115.668 14.7742 115.794 15.261C115.911 15.7431 115.92 16.3578 115.807 17.1422C115.755 17.8327 115.626 18.6373 115.474 19.5818L115.419 19.9253L113.472 31.1642H120.472L123.214 15.2287C123.9 14.7792 124.515 14.4701 125.068 14.2275C125.621 13.9834 126.174 13.8911 126.705 13.8911C127.461 13.8911 128.024 13.9834 128.393 14.2002C128.768 14.428 129.018 14.7742 129.131 15.261C129.266 15.7431 129.266 16.3578 129.163 17.1293C129.095 17.8864 128.943 18.8159 128.749 19.9253L126.815 31.1642H133.801L136.325 16.5245C136.596 14.9231 136.664 13.6211 136.519 12.6316C136.373 11.6304 136.069 10.7778 135.574 10.0518ZM150.308 26.4807C150.994 26.1975 151.637 25.8063 152.239 25.3014L153.048 20.6079C151.844 20.726 150.858 20.8364 150.133 20.9283C149.383 21.0156 148.648 21.1807 147.898 21.428C147.258 21.6497 146.727 21.9731 146.326 22.3984C145.902 22.84 145.631 23.4205 145.514 24.1434C145.339 25.1978 145.488 25.9226 145.977 26.3122C146.462 26.7005 147.283 26.9075 148.373 26.9075C148.968 26.9075 149.629 26.7685 150.308 26.4807ZM146.387 8.44074C147.972 8.1723 149.551 8.03332 151.097 8.03332C154.93 8.03332 157.628 8.6689 159.158 9.94807C160.672 11.2503 161.215 13.2087 160.762 15.8547L158.129 31.1641H151.23L151.637 28.7884C151.41 28.9569 151.192 29.1157 150.983 29.268C150.694 29.4782 150.422 29.6758 150.169 29.8689C149.742 30.1939 149.176 30.5107 148.49 30.8409C147.824 31.1303 147.171 31.3683 146.559 31.5281C145.938 31.6948 145.1 31.7692 144.042 31.7692C142.079 31.7692 140.562 31.101 139.485 29.7671C138.401 28.4455 138.039 26.7556 138.388 24.7111C138.686 23.0454 139.236 21.6964 140.074 20.6697C140.911 19.6359 142.021 18.8158 143.353 18.2257C144.718 17.6111 146.297 17.176 148.079 16.9512C149.868 16.7021 151.78 16.5096 153.814 16.3722L153.821 16.2738C154.051 15.0217 153.743 14.1629 152.909 13.6859C152.087 13.2087 150.764 12.9809 148.952 12.9809C148.124 12.9809 147.145 13.1198 146.009 13.4221C144.858 13.7327 143.719 14.1112 142.6 14.5804H141.992L142.923 9.14121C143.654 8.95856 144.812 8.71595 146.387 8.44074ZM200.645 26.4807C201.318 26.1975 201.978 25.8063 202.58 25.3014L203.392 20.6079C202.185 20.726 201.225 20.8364 200.474 20.9283C199.727 21.0156 198.989 21.1807 198.242 21.428C197.595 21.6497 197.068 21.9731 196.664 22.3984C196.253 22.84 195.974 23.4205 195.848 24.1434C195.667 25.1978 195.839 25.9226 196.318 26.3122C196.816 26.7005 197.624 26.9075 198.717 26.9075C199.316 26.9075 199.956 26.7685 200.645 26.4807ZM201.447 8.03332C205.284 8.03332 207.963 8.6689 209.499 9.94807C211.025 11.2503 211.553 13.2087 211.1 15.8547L208.473 31.1641H201.567L201.978 28.7884C201.791 28.9256 201.611 29.0564 201.438 29.1824C201.104 29.4249 200.794 29.6498 200.506 29.8689C200.079 30.1939 199.517 30.5107 198.824 30.8409C198.152 31.1303 197.511 31.3683 196.897 31.5281C196.279 31.6948 195.444 31.7692 194.39 31.7692C192.42 31.7692 190.9 31.101 189.825 29.7671C188.742 28.4455 188.386 26.7556 188.732 24.7111C189.027 23.0454 189.589 21.6964 190.411 20.6697C191.252 19.6359 192.359 18.8158 193.681 18.2257C195.066 17.6111 196.641 17.176 198.423 16.9512C200.202 16.7021 202.124 16.5096 204.139 16.3722L204.165 16.2738C204.388 15.0217 204.081 14.1629 203.269 13.6859C202.434 13.2087 201.105 12.9809 199.297 12.9809C198.456 12.9809 197.485 13.1198 196.347 13.4221C195.198 13.7327 194.053 14.1112 192.94 14.5804H192.329L193.267 9.14121C193.992 8.95856 195.15 8.71595 196.722 8.44074C198.307 8.1723 199.876 8.03332 201.447 8.03332Z"/>
</symbol><symbol viewBox="0 0 77 14" id="logo_salt" xmlns="http://www.w3.org/2000/svg">
<path fill-rule="evenodd" clip-rule="evenodd" d="M32.7048 10.9764C34.2224 11.0205 35.7244 10.6559 37.0571 9.91985C37.1285 9.8802 37.2046 9.85222 37.3061 9.80557C37.673 10.5339 37.8597 11.3415 37.8501 12.159C37.8616 13.0733 37.8501 13.0919 36.9902 13.3741C35.5422 13.8278 34.028 14.0267 32.5134 13.9619C30.8998 13.9293 29.376 13.619 27.9883 12.77C26.3377 11.7718 25.4156 10.2767 25.1298 8.39213C24.8566 6.89013 25.0167 5.34034 25.5908 3.92792C26.453 1.89406 28.0528 0.760515 30.1391 0.289369C32.6121 -0.288017 35.2057 0.00401796 37.4928 1.11737C37.6103 1.17102 37.7763 1.30396 37.7763 1.39959C37.8041 2.50724 37.5391 3.60231 37.0087 4.57166C36.2249 4.17282 35.4849 3.74832 34.7034 3.40546C33.7746 2.99609 32.7409 2.89722 31.7527 3.12324C30.1321 3.49409 29.1593 4.67895 29.104 6.45157C29.0804 7.09895 29.1455 7.74653 29.2976 8.3758C29.7057 9.9665 31.0266 10.9414 32.7071 10.9858L32.7048 10.9764ZM73.0235 8.54374C72.9516 8.3518 72.8262 8.18509 72.6625 8.06379C72.4989 7.9425 72.3039 7.87183 72.1014 7.86034C71.0733 7.82536 70.0428 7.86034 68.9939 7.86034V10.9088C70.052 10.9088 71.0848 10.9508 72.1106 10.8831C72.2748 10.8493 72.4307 10.7831 72.5696 10.6882C72.7084 10.5934 72.8274 10.4718 72.9198 10.3304C73.0905 10.07 73.1895 9.7682 73.2065 9.45619C73.2235 9.14418 73.158 8.83322 73.0166 8.5554L73.0235 8.54374ZM76.4122 11.4966C75.7206 12.9846 74.4435 13.6774 72.8644 13.7123C70.4808 13.7683 68.0972 13.7287 65.7182 13.731C65.3862 13.731 65.1903 13.5771 65.1903 13.2459C65.1903 10.7362 65.1903 8.22575 65.1903 5.71454C65.1672 5.49762 65.1557 5.29237 65.1534 5.10578C65.1547 4.77476 65.1246 4.44438 65.0635 4.11917C65.0362 3.85923 64.9121 3.61955 64.7164 3.44886C64.5207 3.27816 64.2681 3.18926 64.01 3.20021C63.3184 3.17688 62.6061 3.20021 61.873 3.20021C61.873 3.89993 61.8846 4.59965 61.873 5.29937C61.8431 6.99969 61.7393 8.69301 61.2667 10.335C60.8818 11.6738 60.2547 12.8633 58.89 13.4325C58.37 13.6436 57.8196 13.7681 57.2602 13.801C56.4419 13.8476 55.6166 13.7776 54.7798 13.7567C54.5266 12.7605 54.5393 11.7141 54.8167 10.7245C55.1822 10.7433 55.5484 10.7433 55.914 10.7245C56.336 10.7018 56.7413 10.5504 57.0766 10.2902C57.412 10.0301 57.6616 9.67325 57.7928 9.26678C58.0676 8.49036 58.2472 7.68276 58.3276 6.86208C58.4175 5.7122 58.3506 4.55067 58.3506 3.2935H55.9301C55.8333 2.48183 55.7641 2.32322 55.7641 1.84975C55.732 1.32925 55.7881 0.807033 55.9301 0.305696H56.428C59.1943 0.305696 61.9606 0.284704 64.7384 0.31969C65.4236 0.317351 66.1045 0.430059 66.7532 0.653224C68.0972 1.14303 68.6551 2.2859 68.8717 3.62004C68.9328 4.02918 68.9628 4.44244 68.9617 4.85621V4.98916C68.9706 5.00423 68.9769 5.02083 68.9801 5.03814C70.0636 5.03814 71.0963 5.02181 72.1268 5.03814C72.7177 5.03636 73.3078 5.0863 73.8903 5.18741C75.3748 5.49062 76.32 6.40259 76.6865 7.886C77.0201 9.08074 76.9253 10.3563 76.4191 11.4872L76.4122 11.4966ZM49.5907 6.15536C49.4708 4.54367 48.6686 3.16289 46.5939 3.0556C45.0401 2.9763 43.846 3.53607 43.3389 5.24106C43.2026 5.81928 43.1253 6.41015 43.1084 7.00435C43.1099 7.29195 43.1269 7.57926 43.1591 7.86501C43.3343 9.41372 43.9797 10.7339 45.8585 10.9484C47.5068 11.135 49.0328 10.5706 49.4731 8.61604C49.6326 7.80707 49.6738 6.97877 49.5953 6.15769L49.5907 6.15536ZM51.9905 11.8324C51.0446 12.8584 49.7915 13.5412 48.4242 13.7753C46.2781 14.1881 44.1757 14.0902 42.2208 12.9893C40.425 11.9747 39.4937 10.3583 39.1848 8.35948C38.9355 6.92374 39.0815 5.44627 39.6067 4.08885C40.3836 2.15063 41.822 0.923782 43.8138 0.384997C45.8746 -0.170115 47.9355 -0.118801 49.9134 0.74652C52.0112 1.66082 53.173 3.33315 53.5672 5.5606C53.6502 6.02708 53.6641 6.52154 53.7102 6.99969C53.6802 8.81196 53.233 10.468 51.9858 11.8371"/>
<rect y="5" width="20" height="0.999965"/>
<rect y="8" width="20" height="0.999965"/>
</symbol><symbol viewBox="0 0 139 54" id="logo_sidebar" xmlns="http://www.w3.org/2000/svg">
<path fill-rule="evenodd" clip-rule="evenodd" d="M133.221 24.8453C130.885 27.4125 128.003 29.4551 124.582 30.9648L138.937 53.8765H122.189L105.023 24.4299H111.146C113.045 24.4299 114.704 24.3123 116.079 24.0721C117.449 23.8503 118.671 23.3639 119.738 22.614C120.726 21.9412 121.526 21.1337 122.117 20.1927C122.717 19.2516 123.142 18.0201 123.419 16.5007C123.66 15.1577 123.597 13.9924 123.246 13.017C122.888 12.0342 122.139 11.2831 121.015 10.7537C120.216 10.38 119.306 10.1594 118.264 10.059C117.238 9.96583 115.93 9.91927 114.362 9.91927H96.0078C94.4945 7.63643 93.0167 5.55332 91.6211 3.74469C90.4276 2.21422 89.3909 1.00724 88.4229 0H119.859C122.902 0 125.503 0.18993 127.697 0.566115C129.885 0.941074 131.83 1.71305 133.538 2.89429C135.278 4.1221 136.551 5.69056 137.373 7.58373C138.188 9.47691 138.341 11.8872 137.826 14.8023C137.095 18.933 135.566 22.266 133.221 24.8453ZM87.3368 5.52281C89.7385 8.59478 92.6414 12.8431 95.6484 17.8364C101.645 27.8329 108.091 40.8315 111.964 53.3473L111.979 53.384V53.4159L111.842 53.623L111.709 53.7112L111.535 53.759L111.322 53.7957C111.22 53.8083 111.113 53.814 110.986 53.8207C110.928 53.8238 110.866 53.827 110.799 53.8313C110.378 53.8619 109.777 53.8778 109.109 53.8778C107.68 53.8778 105.834 53.7957 104.145 53.4612C102.457 53.1414 100.86 52.5508 100.166 51.5141C96.8971 46.4338 88.7533 35.5404 80.1955 29.5949C77.3551 27.6148 74.4302 26.1897 71.7871 25.7093C71.5432 25.6616 71.292 25.6419 71.0077 25.6419C69.2959 25.6211 66.7655 26.5218 63.9399 28.0106C61.1338 29.492 58.0067 31.5322 54.8538 33.6901C53.4335 34.6633 52.0109 35.6604 50.6075 36.6441C45.7731 40.0326 41.1661 43.2618 37.6609 44.8041C36.3313 45.3616 35.1734 45.7243 34.0424 45.7452L33.7495 45.7243C33.3084 45.7047 32.98 45.5552 32.7165 45.3726C32.4702 45.2023 32.2668 44.9965 32.0892 44.7404C31.7277 44.2392 31.4385 43.591 31.1812 42.8619C30.9284 42.2043 30.7011 41.4819 30.4723 40.755C30.1886 39.8539 29.9028 38.9458 29.5637 38.1455C29.1593 37.1995 28.6557 36.3957 28.1472 36.0072C27.8433 35.7879 27.6227 35.7315 27.4107 35.7315L27.2453 35.7377C27.0922 35.7487 26.4084 36.017 25.6132 36.4618C24.8314 36.9091 23.8388 37.5169 22.7311 38.2447C20.4973 39.7213 17.7353 41.6696 14.9807 43.6939C12.9285 45.1964 10.8597 46.7385 8.95611 48.1572C5.72905 50.5625 2.9772 52.6135 1.58757 53.5176L1.27756 53.7014C1.2629 53.7062 1.24774 53.7114 1.23175 53.717C1.13278 53.7514 1.00186 53.7969 0.759233 53.8043L0.276442 53.7014L0.0558781 53.5176L-0.000488281 53.2333C-0.000488281 52.7689 0.343837 51.9932 0.700416 51.2531C0.926721 50.7749 1.16712 50.3119 1.32522 50.0073C1.40939 49.8452 1.47023 49.728 1.49322 49.6773C1.57319 49.4798 1.7649 49.3036 2.03585 49.0547L2.07037 49.023C2.3571 48.7706 2.75902 48.4544 3.28224 48.0464C3.8072 47.6286 4.47736 47.1222 5.29155 46.5071C6.06047 45.9262 6.95785 45.2482 7.98271 44.4561C12.2041 41.1917 18.6887 35.9852 28.0296 27.7275C33.0793 23.2648 36.3889 20.8729 38.6289 19.8864C39.3886 19.5654 40.0393 19.373 40.7267 19.373C41.1053 19.373 41.5024 19.4576 41.7683 19.5911C42.0685 19.732 42.2621 19.9122 42.3944 20.1254C42.6726 20.5298 42.7424 21.0407 42.7424 21.6767C42.7424 23.9987 41.332 27.9003 39.9241 31.6609C39.8513 31.8536 39.7785 32.0461 39.706 32.238C38.3638 35.7869 37.0921 39.1497 37.1107 40.6795C37.0911 41.0324 37.1768 41.2689 37.2614 41.3486L37.3288 41.3314L37.8079 41.1243C38.1718 40.9283 38.6902 40.584 39.309 40.0999C40.5454 39.1515 42.218 37.6333 44.3954 35.4632C48.7712 31.1119 55.1933 24.0882 64.4325 13.4472C70.4624 6.50554 74.179 2.52068 77.2411 0.863999C78.2913 0.31749 79.2924 0.000122536 80.3952 0.000122536C80.8179 0.000122536 81.2395 0.0515875 81.6328 0.150841C82.0776 0.269701 82.4195 0.465758 82.8202 0.743914C83.1964 1.01594 83.6363 1.38723 84.1154 1.83938C85.0393 2.74002 86.1201 3.98376 87.3368 5.52281Z"/>
</symbol><symbol viewBox="0 0 46 26" id="ls-icon-1" xmlns="http://www.w3.org/2000/svg">
<path fill-rule="evenodd" clip-rule="evenodd" d="M34.6892 0H24.4531L24.0778 0.0245171L23.9589 0.0401406C23.0838 0.155075 22.3419 0.487576 21.6592 0.97218C21.0205 1.44272 20.503 1.97792 19.9577 2.66371L19.6797 3.02367L19.3656 3.45115L19.0491 3.90091L18.7254 4.37641L18.2227 5.13753L16.8609 7.25351C16.1861 6.82512 15.4084 6.6141 14.6434 6.6141C13.7237 6.6141 13.0021 6.86685 12.2858 7.2797C11.8347 7.54996 11.4559 7.83807 11.066 8.18407L10.7651 8.46108L10.675 8.5471L10.3405 8.87966L10.1916 9.03323L9.77595 9.4795L9.64317 9.62645L9.27749 10.0417L8.86853 10.5207L8.37881 11.1083L7.62585 12.005L6.93662 12.8134L6.09899 13.7781L5.53796 14.4123L4.86142 15.163L4.27526 15.7998L3.77197 16.3356L2.81857 17.3247L2.34079 17.8371L2.24502 17.9441L2.09811 18.1188L1.99363 18.2517L1.93527 18.3296C1.7945 18.5212 1.66831 18.7199 1.54722 18.9664L1.44351 19.1955L1.38372 19.3498L1.1845 19.8889L1.06658 20.2342C0.87326 20.8445 0.779297 21.2659 0.779297 21.844V22.1094L0.988303 23.5471L2.46841 25.2295L4.35506 25.7781L5.36803 25.6443L5.55366 25.5998L5.67927 25.5641L7.28594 25.2438L8.30389 24.3183L8.55642 24.0608L8.86457 23.7026L9.15205 23.4012L9.4341 23.1158L9.7823 22.7709L10.4609 22.1201L10.6066 22.2268C11.1243 22.5889 11.7363 22.8403 12.4378 22.9224L12.5425 22.9311L12.5426 22.933L12.9606 22.9735L13.5631 22.9182L13.6776 22.9004C14.4275 22.7835 15.0358 22.5304 15.698 22.1517C16.5498 21.6414 17.327 21.0063 18.3467 20.0665L18.8635 19.584L20.1848 18.3251L20.9852 17.5746L21.2026 17.3759L21.6079 17.0143C21.6722 16.958 21.735 16.9036 21.7961 16.8513L22.1324 16.5687L21.9941 16.433C23.0785 17.4606 24.3978 19.3977 25.5431 21.5244L25.8162 22.0421L26.0233 22.4519L26.2187 22.856C26.9487 24.3444 28.1782 25.1076 29.5998 25.4749C30.2881 25.6611 31.0156 25.7338 31.7602 25.7338H45.2207L40.3515 15.1816L40.4139 15.1106C40.6553 14.82 40.8832 14.5145 41.0974 14.195C42.0295 12.8029 42.5934 11.133 42.8455 9.19728C43.039 7.71222 42.9767 6.36711 42.591 5.15008C42.2001 3.92795 41.5604 2.86391 40.6673 2.00817C39.7448 1.14163 38.6779 0.564804 37.4913 0.288738C36.6437 0.091344 35.715 0 34.6892 0ZM34.6892 3.6697C35.4542 3.6697 36.1083 3.73455 36.6598 3.86299C37.21 3.991 37.699 4.25457 38.1285 4.65787C38.566 5.07706 38.8861 5.61256 39.0928 6.25892C39.2977 6.90529 39.3362 7.7282 39.2065 8.72348C39.0229 10.1338 38.6384 11.2717 38.0487 12.1523C37.5267 12.9314 36.8961 13.569 36.1583 14.0631L35.8766 14.2416L39.4859 22.0641H31.7602C31.4026 22.0641 30.9403 22.0361 30.5177 21.9219C30.095 21.8127 29.6954 21.611 29.5218 21.2571L29.3118 20.8233L29.1492 20.4999C29.1207 20.4439 29.0914 20.3869 29.0615 20.329L28.774 19.7844C27.7571 17.8961 26.1707 15.3351 24.5229 13.7737C23.8119 13.0976 23.0797 12.6111 22.4182 12.4471C22.3571 12.4308 22.2942 12.4241 22.2231 12.4241C21.7946 12.417 21.1612 12.7245 20.4539 13.2327C19.8393 13.6753 19.1632 14.2639 18.4751 14.8977L17.6531 15.6685L16.3587 16.9021L15.8598 17.368C15.1229 18.0471 14.4421 18.6265 13.876 18.9662C13.5987 19.1248 13.3512 19.2373 13.1126 19.2745L12.9703 19.2875L12.897 19.2804C12.7866 19.2737 12.7044 19.2227 12.6384 19.1603C12.5768 19.1022 12.5258 19.0319 12.4814 18.9445C12.4135 18.8161 12.3558 18.6596 12.304 18.4843L12.2074 18.1341L12.0884 17.6725L11.9678 17.2572C11.8666 16.9342 11.7405 16.6597 11.6132 16.5271C11.5562 16.471 11.5109 16.4461 11.4694 16.4372L11.4289 16.433L11.3875 16.4351L11.3519 16.4466C11.3437 16.4501 11.3346 16.4543 11.3246 16.4592L11.2112 16.5225L11.1403 16.5676L10.9789 16.6823L10.7203 16.891L10.4203 17.147L10.0478 17.4821L9.24328 18.2274L8.05672 19.3426L7.19846 20.165L6.82033 20.54L6.49277 20.8723L6.14492 21.2381L5.85419 21.5751L5.75727 21.674L5.57024 21.844L4.76891 22.0039L4.75744 22.0092C4.74226 22.0164 4.72408 22.025 4.6983 22.0312L4.63917 22.039L4.51832 22.0039L4.46311 21.9411L4.449 21.844C4.449 21.7383 4.48731 21.5854 4.53929 21.4203L4.65721 21.0751L4.82289 20.63C4.84291 20.5625 4.8909 20.5024 4.95873 20.4174L4.96736 20.4066L5.02662 20.3377L5.46137 19.8708L6.44728 18.8474L6.97573 18.2846L7.58787 17.6193L8.28695 16.8433L8.87027 16.1837L9.7293 15.1941L10.4363 14.3647L11.1986 13.4568L11.6612 12.9014L12.032 12.4664L12.5377 11.897L12.9861 11.4227L13.2552 11.1567L13.5018 10.9288C13.7375 10.7196 13.9413 10.5654 14.1183 10.4591C14.3085 10.3495 14.4714 10.2838 14.6434 10.2838C14.7382 10.2838 14.8376 10.3127 14.9041 10.3583C14.9793 10.4064 15.0278 10.4679 15.0609 10.5407C15.1166 10.6511 15.1389 10.7849 15.1456 10.9451L15.1571 11.4529L15.1637 11.6415L15.1605 11.755L15.1466 11.8801L15.1344 11.9528L15.097 12.1302L15.0008 12.5104L14.9041 12.8669L14.5824 14.0385L14.4686 14.4741L14.3696 14.8792L14.2895 15.2462C14.2319 15.534 14.1984 15.7739 14.1999 15.9459C14.196 16.0423 14.2089 16.1133 14.2251 16.1517L14.2376 16.1744L14.2545 16.1685L14.3744 16.0978C14.4473 16.0443 14.5449 15.9583 14.6604 15.8415L15.4647 14.9935L16.0584 14.3493L16.5015 13.8516L16.7683 13.5394L16.8875 13.3945L17.0883 13.1361L17.3293 12.8152L17.5421 12.5421L18.1675 11.7697L18.4709 11.3798L18.7543 10.9963L19.1853 10.383L19.6105 9.75198L19.9867 9.17911L21.2856 7.15882L21.7604 6.43926L22.0529 6.00903L22.3276 5.61751L22.5862 5.26394L22.8301 4.9476C23.1855 4.50062 23.4959 4.17674 23.7834 3.96464C24.0024 3.80915 24.2129 3.70799 24.4368 3.67859L24.5729 3.6697H34.6892ZM28.3909 9.75919C28.0288 8.93915 27.6728 8.17797 27.3339 7.49203L33.3071 7.49428L33.5357 7.49619C33.8299 7.50127 34.0818 7.51653 34.2881 7.54197C34.55 7.57628 34.7789 7.65158 34.9797 7.77918C35.2623 7.95991 35.4508 8.21636 35.5408 8.55189L35.6047 8.79282C35.6223 8.87332 35.6253 8.93752 35.6134 9.06194L35.5842 9.30332C35.5424 9.61458 35.4873 9.73278 35.4172 9.84694L35.3421 9.96675C35.3153 10.0109 35.2869 10.0616 35.2567 10.1259C35.1907 10.2687 35.1143 10.316 35.028 10.3446L34.8911 10.3831C34.819 10.405 34.7415 10.438 34.6587 10.5146C34.3904 10.7706 34.0832 10.9367 33.7387 11.0124C33.3931 11.0944 32.9759 11.1346 32.4984 11.1346L28.9775 11.1326C28.7812 10.6594 28.5851 10.2007 28.3909 9.75919Z"/>
</symbol><symbol viewBox="0 0 47 25" id="ls-icon-2" xmlns="http://www.w3.org/2000/svg">
<path fill-rule="evenodd" clip-rule="evenodd" d="M17.5208 5.85329C17.5208 7.44058 18.1746 8.88427 19.2257 9.92827C17.3279 10.9836 15.8737 12.7449 15.222 14.8546C14.6117 14.2179 13.9037 13.6757 13.1221 13.2525C14.1465 12.2123 14.7815 10.7879 14.7815 9.22377C14.7815 6.06337 12.1901 3.47204 9.02976 3.47204C5.86941 3.47204 3.27819 6.06337 3.27819 9.22377C3.27819 10.8111 3.93205 12.2547 4.98324 13.2987C2.37403 14.7495 0.603516 17.535 0.603516 20.7248V23.0956C0.60358 23.8519 1.2167 24.4651 1.97305 24.4651H16.2157H30.4582H44.7007C45.457 24.4651 46.0701 23.8519 46.0702 23.0956V20.7248C46.0702 17.5011 44.2621 14.6901 41.6073 13.2526C42.6317 12.2124 43.2667 10.7879 43.2667 9.22377C43.2667 6.06342 40.6753 3.47204 37.515 3.47204C34.3546 3.47204 31.7632 6.06337 31.7632 9.22377C31.7632 10.8111 32.4171 12.2547 33.4683 13.2987C32.7198 13.7149 32.0402 14.2407 31.4517 14.8547C30.7905 12.714 29.3035 10.9318 27.3648 9.88208C28.3891 8.8419 29.0241 7.41738 29.0241 5.85329C29.0241 2.69289 26.4327 0.101562 23.2723 0.101562C20.112 0.101562 17.5208 2.69289 17.5208 5.85329ZM23.3378 2.94551C24.7499 2.94551 25.8699 4.06553 25.8699 5.47762C25.8699 6.8586 24.7987 7.96012 23.4306 8.00791L23.39 8.00769C23.3494 8.00769 23.3083 8.00818 23.2677 8.00886C21.8879 7.97275 20.8038 6.86686 20.8038 5.47762C20.8038 4.06553 21.9238 2.94551 23.3359 2.94551H23.3378ZM9.18562 11.5472C10.5539 11.4996 11.6255 10.398 11.6255 9.01686C11.6255 7.60478 10.5054 6.48476 9.09517 6.48476C7.68308 6.48476 6.5632 7.60478 6.5632 9.01686C6.5632 10.4063 7.64761 11.512 9.02765 11.5481C9.06827 11.5474 9.10889 11.5469 9.14951 11.5469L9.18562 11.5472ZM40.1107 9.01686C40.1107 10.398 39.039 11.4996 37.6707 11.5472L37.6346 11.5469C37.594 11.5469 37.5534 11.5474 37.5128 11.5481C36.1327 11.512 35.0482 10.4063 35.0482 9.01686C35.0482 7.60478 36.1683 6.48476 37.5804 6.48476C38.9906 6.48476 40.1107 7.60478 40.1107 9.01686ZM28.2681 17.256C28.2681 14.5224 26.1179 12.3532 23.392 12.3255C23.3552 12.3264 23.3183 12.327 23.2815 12.327C23.2688 12.327 23.2566 12.3267 23.2444 12.3265L23.2253 12.3262C20.5263 12.3842 18.4058 14.5413 18.4058 17.256V20.1455V21.0039H28.2681V20.1455V17.256ZM13.6159 20.2168V21.0039H4.57281V20.2168C4.57281 17.7276 6.51714 15.7496 8.99198 15.6964L9.0095 15.6967L9.00961 15.6967C9.0207 15.6969 9.03191 15.6971 9.04348 15.6971C9.07726 15.6971 9.11103 15.6966 9.1448 15.6958C11.6443 15.7211 13.6159 17.7103 13.6159 20.2168ZM42.101 21.0038V20.2168C42.101 17.7104 40.1294 15.7211 37.6299 15.6958C37.5961 15.6966 37.5624 15.6971 37.5286 15.6971C37.517 15.6971 37.5057 15.6969 37.4946 15.6967C37.4887 15.6966 37.4829 15.6965 37.4771 15.6965C35.0022 15.7496 33.0579 17.7276 33.0579 20.2168V21.0038H42.101Z"/>
</symbol><symbol viewBox="0 0 40 41" id="ls-icon-3" xmlns="http://www.w3.org/2000/svg">
<path fill-rule="evenodd" clip-rule="evenodd" d="M1.08143 40.2547L2.18123 38.8947C2.62949 38.3414 3.33136 37.4756 4.21464 36.4166C4.39247 36.3998 4.61767 36.387 4.88774 36.3715C7.77585 36.2062 15.7954 35.7472 25.8852 27.0692C35.2763 18.9948 38.1865 9.4351 39.1289 4.22459C39.1377 4.18304 39.1442 4.13931 39.1464 4.09777C39.2907 2.76181 38.6982 1.45422 37.5962 0.678015C36.5007 -0.091645 35.0707 -0.216257 33.8572 0.356594C33.8375 0.36534 33.8157 0.376273 33.7982 0.385019C29.4133 2.66986 27.0036 3.24815 22.9785 4.21411C22.5816 4.30936 22.169 4.40839 21.7372 4.5132C18.0091 5.41871 15.2913 7.97913 13.4108 10.7757C13.354 10.8588 13.2993 10.9397 13.2469 11.025C13.1288 10.686 12.908 10.3821 12.6019 10.1656C12.0246 9.75457 11.2527 9.73708 10.6558 10.1154C10.6558 10.1154 4.06792 14.2698 1.79829 22.2374C0.702302 26.0895 1.23287 29.2665 1.62645 31.6232C1.75896 32.4167 1.87594 33.1172 1.91009 33.7191C1.27728 34.4752 1.36351 34.5061 1.43782 34.5328C1.49009 34.5516 1.53646 34.5682 1.32246 34.8337L0.222656 39.9163L1.08143 40.2547ZM35.6699 3.689C34.7906 8.46649 32.106 17.1057 23.6045 24.4172C17.5323 29.641 12.911 30.8342 9.18142 31.7971C8.72242 31.9156 8.27692 32.0307 7.84389 32.1493C9.36004 30.4124 10.333 29.4698 11.6065 28.2362C12.0981 27.76 12.6345 27.2404 13.2642 26.6149C18.5142 21.4019 27.4529 14.2432 27.4529 14.2432L28.8194 13.1478L26.6329 10.419L25.2663 11.5123C25.2663 11.5123 16.1527 18.8175 10.8001 24.133C10.1712 24.7564 9.63479 25.2751 9.14302 25.7507C7.85664 26.9947 6.8756 27.9434 5.3428 29.6976C4.67661 27.7803 4.35857 26.0221 5.16321 23.1949C6.04438 20.1053 7.69744 17.6979 9.21706 16.0099C9.19959 17.4267 9.40294 18.7015 9.82931 20.0353C10.0698 20.7897 10.787 21.2904 11.5785 21.2532C12.3701 21.2138 13.037 20.6519 13.2075 19.8779C13.2075 19.8779 14.0275 16.126 16.3124 12.7282C17.738 10.6116 19.7387 8.59999 22.5615 7.91339C22.9594 7.81682 23.342 7.72471 23.7117 7.63571C28.096 6.58018 30.664 5.96195 35.3726 3.51189C35.4382 3.48565 35.5191 3.4944 35.5825 3.53813C35.6306 3.5753 35.6634 3.62777 35.6699 3.689Z"/>
</symbol><symbol viewBox="0 0 36 39" id="ls-icon-4" xmlns="http://www.w3.org/2000/svg">
<path fill-rule="evenodd" clip-rule="evenodd" d="M17.8993 33.0242L18.1584 31.3459L3.41946 31.3446C1.6544 31.3446 0.223353 29.9141 0.222656 28.1491V10.2159C0.222656 8.45032 1.65391 7.01907 3.41946 7.01907H18.1584L17.8993 5.33907C17.7011 4.0592 18.4527 3.20438 18.9035 2.69175L18.9058 2.68909L18.9799 2.60496C19.1734 2.38287 19.7631 1.71196 22.5309 0.877427C25.2086 0.0706553 25.9308 0.259519 26.1676 0.323034C29.2374 1.12602 31.754 3.58756 33.4441 7.44222C34.8722 10.6962 35.6588 14.8706 35.6588 19.1846C35.6588 23.4986 34.8722 27.6662 33.4441 30.9202C31.7536 34.7761 29.2378 37.2372 26.1672 38.0402C25.9892 38.0887 25.8048 38.1101 25.6204 38.1037C24.5668 38.0425 23.5269 37.8345 22.5309 37.4858C19.7631 36.6509 19.1734 35.9804 18.9799 35.7583L18.9058 35.6742C18.4554 35.1635 17.7007 34.308 17.8993 33.0242ZM25.6204 3.77479C24.7657 3.83242 22.3054 4.45522 21.7005 4.88847L21.6627 4.93474L21.6267 4.97553C21.5551 5.05673 21.4745 5.14813 21.42 5.21993L22.1812 9.05036C22.6241 9.06635 23.3607 9.08738 24.1384 9.10841C25.153 9.13449 25.7819 9.16099 26.5273 9.19254C27.1359 9.22005 28.2423 9.42444 28.4691 9.98993C30.3139 14.5433 30.3139 23.5957 28.4691 28.1491C28.242 28.7139 27.1355 29.2703 26.5273 29.2971C26.1663 29.3124 25.8322 29.2931 25.4686 29.2722C25.0813 29.2499 24.6606 29.2256 24.138 29.2391C23.359 29.2605 22.6237 29.2815 22.1812 29.2971L21.42 33.0242C21.4764 33.0988 21.5607 33.1941 21.634 33.277L21.6341 33.277L21.6627 33.3094L21.7005 33.3569C22.3054 33.7902 24.4939 34.3405 25.3487 34.3986C30.1817 32.9987 32.0483 25.8558 32.0483 19.1846C32.0483 12.5134 30.4534 5.17424 25.6204 3.77479ZM18.6451 10.1267L7.71067 10.4809L17.0989 18.0659L23.5518 12.5264C23.7877 12.5331 23.6896 12.5168 23.5859 12.4996L23.5834 12.4992L23.6199 12.4679C23.3642 12.4626 23.4754 12.4813 23.5834 12.4992L23.5518 12.5264L23.5387 12.526C22.6928 12.5045 21.8936 12.4839 21.4414 12.4679C20.0888 12.406 18.9436 11.4478 18.6451 10.1267ZM5.43721 27.578C5.08852 27.5883 4.18383 27.6151 4.18201 27.5744V13.216L15.9576 22.476C16.5321 22.9409 17.3534 22.9409 17.9279 22.476L25.9905 15.8586C26.3754 19.1905 26.1609 23.0935 25.3487 25.7881C24.882 25.8052 24.3709 25.8187 23.8768 25.8317C23.7633 25.8347 23.6508 25.8377 23.5399 25.8406C22.6945 25.8617 21.8953 25.8831 21.4431 25.8987C20.09 25.9593 19.2783 26.2533 18.9799 27.5744H5.57061C5.56181 27.5743 5.51246 27.5757 5.43721 27.578Z"/>
</symbol></svg>