<svg width="34" height="22" viewBox="0 0 34 22" fill="none" xmlns="http://www.w3.org/2000/svg">
<path fill-rule="evenodd" clip-rule="evenodd" d="M14.1346 0.0234375L14.3182 0.0266616L14.4391 0.0322339L17.8188 0.0317901C19.6754 0.0317901 21.2396 1.21572 21.8431 2.86016L21.8588 2.90738L22.0205 2.61155C22.6977 1.46477 23.9292 0.74677 25.2757 0.746779H29.8526C32.8415 0.746779 34.1932 3.16703 33.4515 5.65118C33.1477 6.66872 32.5583 7.67581 31.8002 8.71265L29.4659 11.8799L30.8073 13.3219L31.6633 14.2332L32.331 14.9294C34.9115 17.7187 33.8554 21.9862 29.3358 21.9862H25.2286C24.1264 21.9862 23.07 21.5561 22.2774 20.7904L21.5787 20.116L21.5037 20.2406C20.864 21.2377 19.7745 21.9189 18.5128 21.9815L18.3223 21.9862H15.7093C11.781 21.9862 8.31609 19.2575 5.15049 14.7823C3.0415 11.8009 1.13934 8.04316 0.207998 5.41666C-0.172589 4.36286 -0.0257055 3.18737 0.606087 2.2601C1.25336 1.31011 2.33009 0.738763 3.46626 0.746779L7.6205 0.746782C8.5801 0.745347 9.47686 1.11467 10.1509 1.7423L10.1755 1.76595L10.2815 1.65519C11.2433 0.682523 12.5319 0.0996515 13.8988 0.0308118L14.1346 0.0234375ZM17.8188 2.78664H14.3777L14.1994 2.77895C13.311 2.77015 12.4682 3.20313 11.9421 3.9485L12.0503 3.93893L12.2004 3.94005L12.3263 3.952C12.8407 4.0214 13.6895 4.39153 13.6895 6.07856L13.6906 6.31843L13.747 9.85371C13.7576 10.2908 13.5018 10.6884 13.1064 10.8494C12.711 11.0105 12.2598 10.9008 11.9763 10.5749C10.5678 8.56086 9.40106 6.37931 8.50148 4.07762C8.34372 3.72603 8.00125 3.50107 7.62462 3.50163H3.46626L3.36782 3.50801C3.17348 3.5347 2.9969 3.64369 2.88272 3.81127C2.7495 4.00679 2.71823 4.25711 2.79905 4.48089C2.81683 4.53104 2.83544 4.58271 2.85487 4.63583L2.98122 4.97169L3.12676 5.34009L3.29104 5.7385L3.47361 6.1644L3.674 6.61526L4.00702 7.33284L4.24999 7.83507L4.50918 8.35343L4.78415 8.8854L5.07443 9.42845L5.37957 9.98007C5.43164 10.0726 5.48431 10.1653 5.53757 10.2583L5.86414 10.818L6.20442 11.38L6.55796 11.9417C8.95808 15.6798 12.2116 19.2314 15.7093 19.2314H18.3223L18.4348 19.2252C18.952 19.1675 19.3547 18.7171 19.3547 18.1701V16.5479L19.3618 16.4245C19.404 16.0589 19.6322 15.7394 19.9663 15.5908C20.3376 15.4256 20.7689 15.5031 21.0637 15.7879L24.1913 18.809L24.3008 18.9051C24.5652 19.1157 24.8913 19.2314 25.2286 19.2314H29.3358L29.5054 19.2278C31.3157 19.1485 31.2849 17.7861 30.2366 16.7247L30.1522 16.6385L29.2682 15.7086L26.821 13.0775L26.6426 12.876C26.2444 12.36 26.2304 11.6245 26.6248 11.0905L29.4595 7.24638L29.7608 6.82856L29.8905 6.63935L30.0886 6.33548L30.2193 6.12281L30.346 5.90467L30.4659 5.68333C30.4852 5.6463 30.5041 5.60922 30.5226 5.57216L30.6276 5.35021C30.6606 5.2765 30.6913 5.2032 30.7195 5.13067L30.7956 4.91578C31.0426 4.13914 30.9197 3.50163 29.8526 3.50163H25.2757L25.1502 3.50948C24.8195 3.55103 24.5253 3.75507 24.3653 4.06155L23.036 6.59037L21.8557 8.87221C20.6254 11.2169 19.7496 11.0303 19.4593 10.1208L19.4184 9.97143L19.3874 9.81164C19.3657 9.67457 19.3547 9.52828 19.3547 9.37688V4.36558L19.349 4.22934C19.2818 3.4211 18.6224 2.78664 17.8188 2.78664Z" fill="#535559"/>
</svg>
