<svg width="32" height="28" viewBox="0 0 32 28" fill="none" xmlns="http://www.w3.org/2000/svg">
<path fill-rule="evenodd" clip-rule="evenodd" d="M26.255 0.351156C29.6306 -1.03167 32.6366 1.87468 31.8701 5.48322L31.8483 5.57757L28.0794 23.3651C27.4076 26.5933 24.4457 27.931 21.6078 26.363L21.4374 26.2614L21.2742 26.1487L17.5788 23.4145L16.446 24.5177C15.6149 25.2974 14.675 25.7517 13.4026 25.7517C12.5671 25.7517 11.8453 25.598 11.1158 25.0632C10.6825 24.7455 10.3571 24.3515 10.1231 23.9122C10.0189 23.7165 9.94512 23.5408 9.88128 23.3544L9.78934 23.0586L9.71239 22.7974L9.67514 22.6888L8.0408 17.6715L4.01139 16.4125C-0.115702 15.1461 0.171618 10.7947 3.69594 9.09011L3.88783 9.00136L4.08588 8.91786L26.1958 0.377521L26.255 0.351156ZM27.9442 3.0235C27.7839 3.01936 27.6141 3.0474 27.4417 3.10923L27.3119 3.16196L5.16689 11.7163L5.01076 11.7823C3.70776 12.3611 3.70642 13.1226 4.76461 13.5023L4.8914 13.5444L10.4144 15.2709L12.5277 21.7598L12.5717 21.888L12.6945 22.3046C12.7905 22.6186 12.8907 22.7517 13.4026 22.7517C13.8623 22.7517 14.1174 22.5838 14.365 22.3563L17.3136 19.486L23.0586 23.7372L23.1948 23.8083C23.4639 23.9405 23.7123 24.0122 23.9364 24.0219L24.0464 24.0217L24.1523 24.011C24.5993 23.9428 24.9281 23.5853 25.1021 22.9252L25.1424 22.7538L28.9135 4.95572L28.9497 4.79287C29.1572 3.72902 28.6938 3.10312 28.0432 3.03026L27.9442 3.0235ZM23.7302 7.00818L11.2812 14.8743L13.379 21.3154L13.7941 16.8818L24.4536 7.24959C24.9215 6.83366 24.3516 6.63072 23.7302 7.00818Z" fill="#535559"/>
</svg>
