<svg width="26" height="26" viewBox="0 0 26 26" fill="none" xmlns="http://www.w3.org/2000/svg">
<path fill-rule="evenodd" clip-rule="evenodd" d="M2.31527 1.94095L2.94354 1.30309C4.12406 0.136984 5.81724 -0.294368 7.37327 0.20474C9.70381 0.957811 11.3182 2.57541 12.067 4.90498C12.5719 6.44939 12.1325 8.15822 10.9541 9.33657L9.89959 10.3911C9.81373 10.477 9.79899 10.6196 9.83602 10.6729C11.2367 12.6656 12.934 14.3584 14.907 15.7218C14.9711 15.7676 15.0948 15.7555 15.1795 15.6708L16.234 14.6163C17.4172 13.4331 19.1196 12.9994 20.6635 13.5093C22.996 14.2507 24.6141 15.8688 25.3626 18.1976C25.8837 19.7756 25.4032 21.4909 24.1453 22.7488L23.6417 23.2428C22.1556 24.7406 20.1388 25.5749 18.0519 25.5749C17.3201 25.5749 16.5828 25.467 15.8632 25.2547C12.2581 24.1903 9.99282 22.7867 6.38842 19.1823C2.7838 15.5777 1.38014 13.3124 0.314901 9.70423C-0.491888 6.95166 0.278727 3.97743 2.31527 1.94095ZM9.21321 5.83011C8.75747 4.41227 7.86255 3.51557 6.45391 3.0604C5.98193 2.909 5.44936 3.04468 5.05178 3.4374L4.44476 4.05403C3.17289 5.32591 2.6966 7.16415 3.19296 8.8576C3.22352 8.96112 3.25432 9.06322 3.28544 9.16401L3.47652 9.75381C4.35845 12.3443 5.57318 14.1245 8.50973 17.061L8.83134 17.3802C11.5791 20.0869 13.3221 21.2447 15.8164 22.0939L16.4061 22.2849L16.7125 22.3774C17.158 22.5088 17.6094 22.5749 18.0519 22.5749C19.3416 22.5749 20.5911 22.058 21.5262 21.1158L22.034 20.6176C22.511 20.1406 22.6642 19.5935 22.5102 19.127C22.0544 17.709 21.1607 16.8152 19.7387 16.3631C19.2734 16.2095 18.7501 16.3428 18.3553 16.7376L17.3008 17.7921C16.192 18.9009 14.4362 19.0722 13.1825 18.1765C10.9347 16.6235 8.98463 14.6785 7.3775 12.392C6.49644 11.1255 6.67783 9.37024 7.77827 8.2698L8.83282 7.21525C9.2256 6.82247 9.36297 6.28825 9.21321 5.83011Z" fill="#535559"/>
</svg>
