<svg width="30" height="25" viewBox="0 0 30 25" fill="none" xmlns="http://www.w3.org/2000/svg">
<path fill-rule="evenodd" clip-rule="evenodd" d="M6.81764 0.0234375L7.27132 0.476758L7.725 0.0234375H11.9676L12.4213 0.476758L12.875 0.0234375H17.1176L17.5713 0.476758L18.025 0.0234375H22.2676L22.7213 0.476758L23.175 0.0234375H27.4176L29.9926 2.59844V6.84108L29.5393 7.29476L29.9926 7.74844V11.9911L29.5393 12.4448L29.9926 12.8984V17.1411L29.5393 17.5948L29.9926 18.0484V22.2911L27.4176 24.8661H23.175L22.7213 24.4128L22.2676 24.8661H18.025L17.5713 24.4128L17.1176 24.8661H12.875L12.4213 24.4128L11.9676 24.8661H7.725L7.27132 24.4128L6.81764 24.8661H2.575L0 22.2911V18.0484L0.45332 17.5948L0 17.1411V12.8984L0.45332 12.4448L0 11.9911V7.74844L0.45332 7.29476L0 6.84108V2.59844L2.575 0.0234375H6.81764ZM2.12132 4.71976L4.69632 7.29476L2.12132 9.86976L4.69632 12.4448L2.12132 15.0198L4.69632 17.5948L2.12132 20.1698L4.69632 22.7448L7.27132 20.1698L9.84632 22.7448L12.4213 20.1698L14.9963 22.7448L17.5713 20.1698L20.1463 22.7448L22.7213 20.1698L25.2963 22.7448L27.8713 20.1698L25.2963 17.5948L27.8713 15.0198L25.2963 12.4448L27.8713 9.86976L25.2963 7.29476L27.8713 4.71976L25.2963 2.14476L22.7213 4.71976L20.1463 2.14476L17.5713 4.71976L14.9963 2.14476L12.4213 4.71976L9.84632 2.14476L7.27132 4.71976L4.69632 2.14476L2.12132 4.71976ZM7.27132 9.86976L14.9963 16.3073L22.7213 9.86976V7.29476L14.9963 12.4448L7.27132 7.29476V9.86976Z" fill="#535559"/>
</svg>
