<svg width="39" height="37" viewBox="0 0 39 37" fill="none" xmlns="http://www.w3.org/2000/svg">
<path fill-rule="evenodd" clip-rule="evenodd" d="M26.4534 28.0835C23.6491 30.5119 19.9914 31.9812 15.9906 31.9812C7.15923 31.9812 0 24.822 0 15.9906C0 7.15923 7.15923 0 15.9906 0C24.822 0 31.9812 7.15923 31.9812 15.9906C31.9812 19.246 31.0084 22.2741 29.3377 24.8003L38.4497 33.9123L35.366 36.9961L26.4534 28.0835ZM27.6201 15.9906C27.6201 22.4134 22.4134 27.6201 15.9906 27.6201C9.56779 27.6201 4.36107 22.4134 4.36107 15.9906C4.36107 9.56779 9.56779 4.36107 15.9906 4.36107C22.4134 4.36107 27.6201 9.56779 27.6201 15.9906Z" fill="#393939"/>
</svg>
