<svg width="29" height="26" viewBox="0 0 29 26" fill="none" xmlns="http://www.w3.org/2000/svg">
<path fill-rule="evenodd" clip-rule="evenodd" d="M29 7C28.8771 3.84474 26 0 24 0H12H11C7.35255 0.333911 4.38095 3.5488 4 7V14H0V18V19C0.331117 22.9317 3.51942 25.9272 7 26H13H16H18C21.2321 24.8004 23.5238 21.9049 24 18V13H29V7ZM3 18V17H15V23H7C4.91063 22.8769 3.11198 20.8994 3 18ZM20 3H11C8.89736 3.11406 7.11121 4.94601 7 7V16H16V23C18.1026 22.886 19.8888 21.055 20 19V3ZM17 13V11H10V13H17ZM21 10H26V8V7C26 4.79526 23.902 3 23 3C23 3 21.7474 3.04421 21 3V10ZM17 9V7H10V9H17Z" fill="#D33636"/>
</svg>
