<svg width="72" height="57" viewBox="0 0 72 57" fill="none" xmlns="http://www.w3.org/2000/svg">
<g clip-path="url(#clip0_1494_161)">
<path fill-rule="evenodd" clip-rule="evenodd" d="M58 21.3216C58 25.302 56.9002 29.0276 54.9855 32.2158H55.0216L54.8338 32.4647C54.1414 33.5827 53.3479 34.6325 52.4661 35.6016L36.3145 57L20.4911 35.5544C17.0768 31.78 15 26.7914 15 21.3216C15 9.54603 24.6259 0 36.5 0C48.3741 0 58 9.54603 58 21.3216ZM36.5 30.2057C41.4475 30.2057 45.4583 26.2282 45.4583 21.3216C45.4583 16.4151 41.4475 12.4376 36.5 12.4376C31.5525 12.4376 27.5417 16.4151 27.5417 21.3216C27.5417 26.2282 31.5525 30.2057 36.5 30.2057Z" fill="black"/>
<g clip-path="url(#clip1_1494_161)" filter="url(#filter0_d_1494_161)">
<path fill-rule="evenodd" clip-rule="evenodd" d="M37.8991 7.08861H71.206C71.6443 7.08861 72 7.44323 72 7.88017V23.7114C72 24.1483 71.6443 24.503 71.206 24.503H51.584C49.8067 30.5398 43.5431 35 36.089 35C28.6348 35 22.3712 30.5398 20.5939 24.503H0.794014C0.355718 24.503 0 24.1483 0 23.7114V7.88017C0 7.44323 0.355718 7.08861 0.794014 7.08861H34.2788C34.8729 7.03007 35.4769 7 36.089 7C36.701 7 37.305 7.03007 37.8991 7.08861Z" fill="url(#paint0_linear_1494_161)"/>
<path d="M8.762 18.108C8.12 18.108 7.538 17.97 7.016 17.694C6.5 17.412 6.092 17.025 5.792 16.533C5.498 16.035 5.351 15.474 5.351 14.85C5.351 14.226 5.498 13.668 5.792 13.176C6.092 12.678 6.5 12.291 7.016 12.015C7.538 11.733 8.123 11.592 8.771 11.592C9.317 11.592 9.809 11.688 10.247 11.88C10.691 12.072 11.063 12.348 11.363 12.708L10.427 13.572C10.001 13.08 9.473 12.834 8.843 12.834C8.453 12.834 8.105 12.921 7.799 13.095C7.493 13.263 7.253 13.5 7.079 13.806C6.911 14.112 6.827 14.46 6.827 14.85C6.827 15.24 6.911 15.588 7.079 15.894C7.253 16.2 7.493 16.44 7.799 16.614C8.105 16.782 8.453 16.866 8.843 16.866C9.473 16.866 10.001 16.617 10.427 16.119L11.363 16.983C11.063 17.349 10.691 17.628 10.247 17.82C9.803 18.012 9.308 18.108 8.762 18.108ZM16.7453 15.597C16.7453 15.615 16.7363 15.741 16.7183 15.975H13.0553C13.1213 16.275 13.2773 16.512 13.5233 16.686C13.7693 16.86 14.0753 16.947 14.4413 16.947C14.6933 16.947 14.9153 16.911 15.1073 16.839C15.3053 16.761 15.4883 16.641 15.6563 16.479L16.4033 17.289C15.9473 17.811 15.2813 18.072 14.4053 18.072C13.8593 18.072 13.3763 17.967 12.9563 17.757C12.5363 17.541 12.2123 17.244 11.9843 16.866C11.7563 16.488 11.6423 16.059 11.6423 15.579C11.6423 15.105 11.7533 14.679 11.9753 14.301C12.2033 13.917 12.5123 13.62 12.9023 13.41C13.2983 13.194 13.7393 13.086 14.2253 13.086C14.6993 13.086 15.1283 13.188 15.5123 13.392C15.8963 13.596 16.1963 13.89 16.4123 14.274C16.6343 14.652 16.7453 15.093 16.7453 15.597ZM14.2343 14.148C13.9163 14.148 13.6493 14.238 13.4333 14.418C13.2173 14.598 13.0853 14.844 13.0373 15.156H15.4223C15.3743 14.85 15.2423 14.607 15.0263 14.427C14.8103 14.241 14.5463 14.148 14.2343 14.148ZM22.5465 18V15.102L21.0975 17.532H20.5035L19.0905 15.093V18H17.8215V13.158H19.2885L20.8365 15.957L22.4835 13.158H23.7975L23.8155 18H22.5465ZM27.0414 13.086C27.7914 13.086 28.3674 13.266 28.7694 13.626C29.1714 13.98 29.3724 14.517 29.3724 15.237V18H28.0584V17.397C27.7944 17.847 27.3024 18.072 26.5824 18.072C26.2104 18.072 25.8864 18.009 25.6104 17.883C25.3404 17.757 25.1334 17.583 24.9894 17.361C24.8454 17.139 24.7734 16.887 24.7734 16.605C24.7734 16.155 24.9414 15.801 25.2774 15.543C25.6194 15.285 26.1444 15.156 26.8524 15.156H27.9684C27.9684 14.85 27.8754 14.616 27.6894 14.454C27.5034 14.286 27.2244 14.202 26.8524 14.202C26.5944 14.202 26.3394 14.244 26.0874 14.328C25.8414 14.406 25.6314 14.514 25.4574 14.652L24.9534 13.671C25.2174 13.485 25.5324 13.341 25.8984 13.239C26.2704 13.137 26.6514 13.086 27.0414 13.086ZM26.9334 17.127C27.1734 17.127 27.3864 17.073 27.5724 16.965C27.7584 16.851 27.8904 16.686 27.9684 16.47V15.975H27.0054C26.4294 15.975 26.1414 16.164 26.1414 16.542C26.1414 16.722 26.2104 16.866 26.3484 16.974C26.4924 17.076 26.6874 17.127 26.9334 17.127ZM37.279 15.561C37.279 16.311 37.027 16.905 36.523 17.343C36.025 17.775 35.311 18.024 34.381 18.09V19.746H33.094V18.09C32.164 18.024 31.447 17.778 30.943 17.352C30.445 16.92 30.196 16.323 30.196 15.561C30.196 14.811 30.442 14.229 30.934 13.815C31.432 13.401 32.152 13.161 33.094 13.095V11.322H34.381V13.095C35.311 13.161 36.025 13.404 36.523 13.824C37.027 14.244 37.279 14.823 37.279 15.561ZM31.555 15.561C31.555 15.993 31.678 16.326 31.924 16.56C32.17 16.794 32.56 16.941 33.094 17.001V14.184C32.56 14.238 32.17 14.379 31.924 14.607C31.678 14.829 31.555 15.147 31.555 15.561ZM34.381 17.001C34.915 16.941 35.305 16.794 35.551 16.56C35.803 16.326 35.929 15.993 35.929 15.561C35.929 15.147 35.803 14.829 35.551 14.607C35.305 14.379 34.915 14.238 34.381 14.184V17.001ZM40.4977 18.072C39.9877 18.072 39.5287 17.967 39.1207 17.757C38.7187 17.541 38.4037 17.244 38.1757 16.866C37.9477 16.488 37.8337 16.059 37.8337 15.579C37.8337 15.099 37.9477 14.67 38.1757 14.292C38.4037 13.914 38.7187 13.62 39.1207 13.41C39.5287 13.194 39.9877 13.086 40.4977 13.086C41.0077 13.086 41.4637 13.194 41.8657 13.41C42.2677 13.62 42.5827 13.914 42.8107 14.292C43.0387 14.67 43.1527 15.099 43.1527 15.579C43.1527 16.059 43.0387 16.488 42.8107 16.866C42.5827 17.244 42.2677 17.541 41.8657 17.757C41.4637 17.967 41.0077 18.072 40.4977 18.072ZM40.4977 16.92C40.8577 16.92 41.1517 16.8 41.3797 16.56C41.6137 16.314 41.7307 15.987 41.7307 15.579C41.7307 15.171 41.6137 14.847 41.3797 14.607C41.1517 14.361 40.8577 14.238 40.4977 14.238C40.1377 14.238 39.8407 14.361 39.6067 14.607C39.3727 14.847 39.2557 15.171 39.2557 15.579C39.2557 15.987 39.3727 16.314 39.6067 16.56C39.8407 16.8 40.1377 16.92 40.4977 16.92ZM46.9714 13.086C47.4214 13.086 47.8294 13.191 48.1954 13.401C48.5674 13.605 48.8584 13.896 49.0684 14.274C49.2784 14.646 49.3834 15.081 49.3834 15.579C49.3834 16.077 49.2784 16.515 49.0684 16.893C48.8584 17.265 48.5674 17.556 48.1954 17.766C47.8294 17.97 47.4214 18.072 46.9714 18.072C46.3534 18.072 45.8674 17.877 45.5134 17.487V19.746H44.1094V13.158H45.4504V13.716C45.7984 13.296 46.3054 13.086 46.9714 13.086ZM46.7284 16.92C47.0884 16.92 47.3824 16.8 47.6104 16.56C47.8444 16.314 47.9614 15.987 47.9614 15.579C47.9614 15.171 47.8444 14.847 47.6104 14.607C47.3824 14.361 47.0884 14.238 46.7284 14.238C46.3684 14.238 46.0714 14.361 45.8374 14.607C45.6094 14.847 45.4954 15.171 45.4954 15.579C45.4954 15.987 45.6094 16.314 45.8374 16.56C46.0714 16.8 46.3684 16.92 46.7284 16.92ZM50.3674 13.158H51.7624V15.048H53.8684V13.158H55.2724V18H53.8684V16.191H51.7624V18H50.3674V13.158ZM58.4974 13.086C59.2474 13.086 59.8234 13.266 60.2254 13.626C60.6274 13.98 60.8284 14.517 60.8284 15.237V18H59.5144V17.397C59.2504 17.847 58.7584 18.072 58.0384 18.072C57.6664 18.072 57.3424 18.009 57.0664 17.883C56.7964 17.757 56.5894 17.583 56.4454 17.361C56.3014 17.139 56.2294 16.887 56.2294 16.605C56.2294 16.155 56.3974 15.801 56.7334 15.543C57.0754 15.285 57.6004 15.156 58.3084 15.156H59.4244C59.4244 14.85 59.3314 14.616 59.1454 14.454C58.9594 14.286 58.6804 14.202 58.3084 14.202C58.0504 14.202 57.7954 14.244 57.5434 14.328C57.2974 14.406 57.0874 14.514 56.9134 14.652L56.4094 13.671C56.6734 13.485 56.9884 13.341 57.3544 13.239C57.7264 13.137 58.1074 13.086 58.4974 13.086ZM58.3894 17.127C58.6294 17.127 58.8424 17.073 59.0284 16.965C59.2144 16.851 59.3464 16.686 59.4244 16.47V15.975H58.4614C57.8854 15.975 57.5974 16.164 57.5974 16.542C57.5974 16.722 57.6664 16.866 57.8044 16.974C57.9484 17.076 58.1434 17.127 58.3894 17.127ZM66.35 13.158V18H65.099V16.614H64.064L63.146 18H61.652L62.759 16.416C62.423 16.284 62.165 16.095 61.985 15.849C61.811 15.597 61.724 15.294 61.724 14.94C61.724 14.37 61.928 13.932 62.336 13.626C62.75 13.314 63.317 13.158 64.037 13.158H66.35ZM64.064 14.301C63.764 14.301 63.536 14.355 63.38 14.463C63.23 14.571 63.155 14.745 63.155 14.985C63.155 15.225 63.227 15.402 63.371 15.516C63.521 15.624 63.746 15.678 64.046 15.678H65.099V14.301H64.064Z" fill="white"/>
<path d="M32.182 27.548V29H26.363V27.845L29.333 25.04C29.6483 24.7393 29.861 24.4827 29.971 24.27C30.081 24.05 30.136 23.8337 30.136 23.621C30.136 23.313 30.0297 23.0783 29.817 22.917C29.6117 22.7483 29.3073 22.664 28.904 22.664C28.5667 22.664 28.2623 22.73 27.991 22.862C27.7197 22.9867 27.4923 23.1773 27.309 23.434L26.011 22.598C26.3117 22.1507 26.726 21.8023 27.254 21.553C27.782 21.2963 28.387 21.168 29.069 21.168C29.641 21.168 30.1397 21.2633 30.565 21.454C30.9977 21.6373 31.3313 21.9013 31.566 22.246C31.808 22.5833 31.929 22.983 31.929 23.445C31.929 23.863 31.841 24.2553 31.665 24.622C31.489 24.9887 31.148 25.4067 30.642 25.876L28.871 27.548H32.182ZM38.1863 24.952C38.5676 25.1427 38.8573 25.392 39.0553 25.7C39.2606 26.008 39.3633 26.3637 39.3633 26.767C39.3633 27.2437 39.2276 27.6617 38.9563 28.021C38.6849 28.373 38.3036 28.648 37.8123 28.846C37.3209 29.0367 36.7526 29.132 36.1073 29.132C35.4619 29.132 34.8936 29.0367 34.4023 28.846C33.9183 28.648 33.5406 28.373 33.2693 28.021C33.0053 27.6617 32.8733 27.2437 32.8733 26.767C32.8733 26.3637 32.9723 26.008 33.1703 25.7C33.3756 25.392 33.6653 25.1427 34.0393 24.952C33.7533 24.776 33.5333 24.556 33.3793 24.292C33.2253 24.0207 33.1483 23.7127 33.1483 23.368C33.1483 22.9207 33.2729 22.532 33.5223 22.202C33.7716 21.872 34.1199 21.619 34.5673 21.443C35.0146 21.2597 35.5279 21.168 36.1073 21.168C36.6939 21.168 37.2109 21.2597 37.6583 21.443C38.1129 21.619 38.4649 21.872 38.7143 22.202C38.9636 22.532 39.0883 22.9207 39.0883 23.368C39.0883 23.7127 39.0113 24.0207 38.8573 24.292C38.7033 24.556 38.4796 24.776 38.1863 24.952ZM36.1073 22.477C35.7479 22.477 35.4583 22.565 35.2383 22.741C35.0256 22.9097 34.9193 23.1443 34.9193 23.445C34.9193 23.7383 35.0256 23.9693 35.2383 24.138C35.4509 24.3067 35.7406 24.391 36.1073 24.391C36.4739 24.391 36.7673 24.3067 36.9873 24.138C37.2073 23.9693 37.3173 23.7383 37.3173 23.445C37.3173 23.1443 37.2073 22.9097 36.9873 22.741C36.7673 22.565 36.4739 22.477 36.1073 22.477ZM36.1073 27.823C36.5546 27.823 36.9066 27.724 37.1633 27.526C37.4273 27.3207 37.5593 27.0493 37.5593 26.712C37.5593 26.3747 37.4273 26.107 37.1633 25.909C36.9066 25.711 36.5546 25.612 36.1073 25.612C35.6673 25.612 35.3189 25.711 35.0623 25.909C34.8056 26.107 34.6773 26.3747 34.6773 26.712C34.6773 27.0567 34.8056 27.328 35.0623 27.526C35.3189 27.724 35.6673 27.823 36.1073 27.823ZM42.885 21.168C43.963 21.168 44.8063 21.498 45.415 22.158C46.0237 22.8107 46.328 23.753 46.328 24.985C46.328 25.8577 46.163 26.6057 45.833 27.229C45.5103 27.8523 45.052 28.3253 44.458 28.648C43.864 28.9707 43.1783 29.132 42.401 29.132C41.9903 29.132 41.598 29.088 41.224 29C40.85 28.9047 40.531 28.7727 40.267 28.604L40.927 27.295C41.301 27.5517 41.7813 27.68 42.368 27.68C43.0207 27.68 43.5377 27.4893 43.919 27.108C44.3003 26.7193 44.5057 26.162 44.535 25.436C44.073 25.898 43.435 26.129 42.621 26.129C42.1297 26.129 41.6823 26.03 41.279 25.832C40.8757 25.634 40.5567 25.3553 40.322 24.996C40.0873 24.6293 39.97 24.2077 39.97 23.731C39.97 23.2177 40.0983 22.7667 40.355 22.378C40.6117 21.9893 40.96 21.6923 41.4 21.487C41.8473 21.2743 42.3423 21.168 42.885 21.168ZM43.017 24.798C43.4057 24.798 43.721 24.6917 43.963 24.479C44.2123 24.259 44.337 23.9803 44.337 23.643C44.337 23.3057 44.216 23.0307 43.974 22.818C43.7393 22.6053 43.413 22.499 42.995 22.499C42.6137 22.499 42.302 22.6017 42.06 22.807C41.8253 23.0123 41.708 23.291 41.708 23.643C41.708 23.995 41.8253 24.2773 42.06 24.49C42.302 24.6953 42.621 24.798 43.017 24.798Z" fill="white"/>
</g>
</g>
<defs>
<filter id="filter0_d_1494_161" x="-6" y="7" width="84" height="40" filterUnits="userSpaceOnUse" color-interpolation-filters="sRGB">
<feFlood flood-opacity="0" result="BackgroundImageFix"/>
<feColorMatrix in="SourceAlpha" type="matrix" values="0 0 0 0 0 0 0 0 0 0 0 0 0 0 0 0 0 0 127 0" result="hardAlpha"/>
<feOffset dy="6"/>
<feGaussianBlur stdDeviation="3"/>
<feColorMatrix type="matrix" values="0 0 0 0 0 0 0 0 0 0 0 0 0 0 0 0 0 0 0.307665 0"/>
<feBlend mode="normal" in2="BackgroundImageFix" result="effect1_dropShadow_1494_161"/>
<feBlend mode="normal" in="SourceGraphic" in2="effect1_dropShadow_1494_161" result="shape"/>
</filter>
<linearGradient id="paint0_linear_1494_161" x1="0" y1="7" x2="0" y2="35" gradientUnits="userSpaceOnUse">
<stop stop-color="#4293E6"/>
<stop offset="1" stop-color="#1F5AC8"/>
</linearGradient>
<clipPath id="clip0_1494_161">
<rect width="72" height="57" fill="white"/>
</clipPath>
<clipPath id="clip1_1494_161">
<rect width="72" height="28" fill="white" transform="translate(0 7)"/>
</clipPath>
</defs>
</svg>
